<svg width="20" height="13" viewBox="0 0 20 13" fill="none" xmlns="http://www.w3.org/2000/svg">
<path d="M9.0281 8.65002L10.417 6.15002H7.08366L8.47255 3.65002M18.3337 6.98336V5.31669M5.66699 11.15H11.8337C13.2338 11.15 13.9339 11.15 14.4686 10.8775C14.939 10.6379 15.3215 10.2554 15.5612 9.785C15.8337 9.25022 15.8337 8.55016 15.8337 7.15002V5.15002C15.8337 3.74989 15.8337 3.04983 15.5612 2.51505C15.3215 2.04464 14.939 1.66219 14.4686 1.42251C13.9339 1.15002 13.2338 1.15002 11.8337 1.15002H5.66699C4.26686 1.15002 3.5668 1.15002 3.03202 1.42251C2.56161 1.66219 2.17916 2.04464 1.93948 2.51505C1.66699 3.04983 1.66699 3.74989 1.66699 5.15002V7.15002C1.66699 8.55016 1.66699 9.25022 1.93948 9.785C2.17916 10.2554 2.56161 10.6379 3.03202 10.8775C3.5668 11.15 4.26686 11.15 5.66699 11.15Z" stroke="#007DF1" stroke-width="2" stroke-linecap="round" stroke-linejoin="round"/>
</svg>
