<svg width="41" height="42" viewBox="0 0 41 42" fill="none" xmlns="http://www.w3.org/2000/svg">
<rect y="0.790009" width="41" height="41" rx="8" fill="#EBF8FF"/>
<path d="M23.0421 18.79H15.0833C13.9327 18.79 13 17.8573 13 16.7067C13 15.5561 13.9327 14.6233 15.0833 14.6233H23.0421M17.9579 27.9567H25.9167C27.0673 27.9567 28 27.0239 28 25.8733C28 24.7227 27.0673 23.79 25.9167 23.79H17.9579M13 25.8733C13 27.4842 14.3058 28.79 15.9167 28.79C17.5275 28.79 18.8333 27.4842 18.8333 25.8733C18.8333 24.2625 17.5275 22.9567 15.9167 22.9567C14.3058 22.9567 13 24.2625 13 25.8733ZM28 16.7067C28 18.3175 26.6942 19.6233 25.0833 19.6233C23.4725 19.6233 22.1667 18.3175 22.1667 16.7067C22.1667 15.0958 23.4725 13.79 25.0833 13.79C26.6942 13.79 28 15.0958 28 16.7067Z" stroke="#007DF1" stroke-width="2" stroke-linecap="round" stroke-linejoin="round"/>
</svg>
