<svg width="24" height="24" viewBox="0 0 24 24" fill="none" xmlns="http://www.w3.org/2000/svg">
<g clip-path="url(#clip0_239_1579)">
<path d="M23.2969 19.7812H23.0625V2.10938C23.0625 0.946289 22.1162 0 20.9531 0H9.70312C8.54004 0 7.59375 0.946289 7.59375 2.10938V14.1603C6.2373 14.2335 5.15625 15.36 5.15625 16.7344C5.15625 17.3806 4.63055 17.9062 3.98438 17.9062C3.3382 17.9062 2.8125 17.3806 2.8125 16.7344V9H3.51562C3.90399 9 4.21875 8.68524 4.21875 8.29688V5.91888L5.70502 5.17584C5.94324 5.05664 6.09375 4.81329 6.09375 4.54688V2.67188C6.09375 2.28351 5.77899 1.96875 5.39062 1.96875H2.57812C1.15649 1.96875 0 3.12524 0 4.54688V8.29688C0 8.68524 0.314758 9 0.703125 9H1.40625V16.7344C1.40625 18.156 2.56274 19.3125 3.98438 19.3125C5.40601 19.3125 6.5625 18.156 6.5625 16.7344C6.5625 16.1358 7.01367 15.6411 7.59375 15.5713V19.7812H7.35938C6.97101 19.7812 6.65625 20.096 6.65625 20.4844V23.2969C6.65625 23.6852 6.97101 24 7.35938 24H23.2969C23.6852 24 24 23.6852 24 23.2969V20.4844C24 20.096 23.6852 19.7812 23.2969 19.7812ZM1.40625 4.54688C1.40625 3.9007 1.93195 3.375 2.57812 3.375H4.6875V4.11237L3.20123 4.85541C2.96301 4.97461 2.8125 5.21796 2.8125 5.48438V7.59375H1.40625V4.54688ZM9 2.10938C9 1.72174 9.31549 1.40625 9.70312 1.40625H20.9531C21.3408 1.40625 21.6562 1.72174 21.6562 2.10938V19.7812H9V2.10938ZM22.5938 22.5938H8.0625V21.1875H22.5938V22.5938Z" fill="#007DF1"/>
<path d="M19.5469 2.8125H11.1094C10.721 2.8125 10.4062 3.12726 10.4062 3.51562V10.0781C10.4062 10.4665 10.721 10.7812 11.1094 10.7812H19.5469C19.9352 10.7812 20.25 10.4665 20.25 10.0781V3.51562C20.25 3.12726 19.9352 2.8125 19.5469 2.8125ZM18.8438 9.375H11.8125V4.21875H18.8438V9.375Z" fill="#007DF1"/>
<path d="M19.5469 12.1875H18.6094C18.221 12.1875 17.9062 12.5023 17.9062 12.8906C17.9062 13.279 18.221 13.5938 18.6094 13.5938H19.5469C19.9352 13.5938 20.25 13.279 20.25 12.8906C20.25 12.5023 19.9352 12.1875 19.5469 12.1875Z" fill="#007DF1"/>
<path d="M15.7969 12.1875H14.8594C14.471 12.1875 14.1562 12.5023 14.1562 12.8906C14.1562 13.279 14.471 13.5938 14.8594 13.5938H15.7969C16.1852 13.5938 16.5 13.279 16.5 12.8906C16.5 12.5023 16.1852 12.1875 15.7969 12.1875Z" fill="#007DF1"/>
<path d="M12.0469 12.1875H11.1094C10.721 12.1875 10.4062 12.5023 10.4062 12.8906C10.4062 13.279 10.721 13.5938 11.1094 13.5938H12.0469C12.4352 13.5938 12.75 13.279 12.75 12.8906C12.75 12.5023 12.4352 12.1875 12.0469 12.1875Z" fill="#007DF1"/>
</g>
<defs>
<clipPath id="clip0_239_1579">
<rect width="24" height="24" fill="white"/>
</clipPath>
</defs>
</svg>
