<svg width="22" height="23" viewBox="0 0 22 23" fill="none" xmlns="http://www.w3.org/2000/svg">
<path d="M8.09 8.5C8.3251 7.83167 8.78915 7.26811 9.39995 6.90913C10.0108 6.55016 10.7289 6.41894 11.4272 6.53871C12.1255 6.65849 12.7588 7.02152 13.2151 7.56353C13.6713 8.10553 13.9211 8.79152 13.92 9.5C13.92 11.5 10.92 12.5 10.92 12.5M11 16.5H11.01M21 11.5C21 17.0228 16.5228 21.5 11 21.5C5.47715 21.5 1 17.0228 1 11.5C1 5.97715 5.47715 1.5 11 1.5C16.5228 1.5 21 5.97715 21 11.5Z" stroke="#B0B0B0" stroke-width="2" stroke-linecap="round" stroke-linejoin="round"/>
</svg>
