<svg width="16" height="19" viewBox="0 0 16 19" fill="none" xmlns="http://www.w3.org/2000/svg">
<path d="M11.333 2.98338C12.108 2.98338 12.4955 2.98338 12.8134 3.06856C13.6761 3.29973 14.35 3.9736 14.5812 4.83633C14.6663 5.15425 14.6663 5.54174 14.6663 6.31671V13.9834C14.6663 15.3835 14.6663 16.0836 14.3939 16.6184C14.1542 17.0888 13.7717 17.4712 13.3013 17.7109C12.7665 17.9834 12.0665 17.9834 10.6663 17.9834H5.33301C3.93288 17.9834 3.23281 17.9834 2.69803 17.7109C2.22763 17.4712 1.84517 17.0888 1.60549 16.6184C1.33301 16.0836 1.33301 15.3835 1.33301 13.9834V6.31671C1.33301 5.54174 1.33301 5.15425 1.41819 4.83633C1.64936 3.9736 2.32323 3.29973 3.18596 3.06856C3.50388 2.98338 3.89136 2.98338 4.66634 2.98338M5.49967 12.15L7.16634 13.8167L10.9163 10.0667M5.99967 4.65004H9.99967C10.4664 4.65004 10.6997 4.65005 10.878 4.55922C11.0348 4.47932 11.1623 4.35184 11.2422 4.19504C11.333 4.01678 11.333 3.78342 11.333 3.31671V2.65004C11.333 2.18333 11.333 1.94998 11.2422 1.77172C11.1623 1.61492 11.0348 1.48743 10.878 1.40754C10.6997 1.31671 10.4664 1.31671 9.99967 1.31671H5.99967C5.53296 1.31671 5.29961 1.31671 5.12135 1.40754C4.96455 1.48743 4.83706 1.61492 4.75717 1.77172C4.66634 1.94998 4.66634 2.18333 4.66634 2.65004V3.31671C4.66634 3.78342 4.66634 4.01678 4.75717 4.19504C4.83706 4.35184 4.96455 4.47932 5.12135 4.55922C5.29961 4.65005 5.53296 4.65004 5.99967 4.65004Z" stroke="#007DF1" stroke-width="2" stroke-linecap="round" stroke-linejoin="round"/>
</svg>
