<svg width="20" height="19" viewBox="0 0 20 19" fill="none" xmlns="http://www.w3.org/2000/svg">
<path d="M13.5351 3.61448C15.4877 5.5671 15.4877 8.73293 13.5351 10.6855M6.464 10.6855C4.51138 8.73293 4.51138 5.5671 6.464 3.61448M4.04813 12.9834C0.852542 9.72453 0.872097 4.4922 4.10679 1.25751M15.8923 1.25751C19.127 4.4922 19.1465 9.72453 15.9509 12.9834M9.99953 12.9834V7.15005M4.1662 17.9834H15.8329C16.6094 17.9834 16.9977 17.9834 17.304 17.8565C17.7124 17.6874 18.0368 17.3629 18.206 16.9545C18.3329 16.6482 18.3329 16.2599 18.3329 15.4834C18.3329 14.7068 18.3329 14.3185 18.206 14.0122C18.0368 13.6039 17.7124 13.2794 17.304 13.1102C16.9977 12.9834 16.6094 12.9834 15.8329 12.9834H4.1662C3.38963 12.9834 3.00135 12.9834 2.69506 13.1102C2.28668 13.2794 1.96222 13.6039 1.79307 14.0122C1.6662 14.3185 1.6662 14.7068 1.6662 15.4834C1.6662 16.2599 1.6662 16.6482 1.79307 16.9545C1.96222 17.3629 2.28668 17.6874 2.69506 17.8565C3.00135 17.9834 3.38963 17.9834 4.1662 17.9834Z" stroke="#007DF1" stroke-width="2" stroke-linecap="round" stroke-linejoin="round"/>
</svg>
