<svg width="40" height="40" viewBox="0 0 40 40" fill="none" xmlns="http://www.w3.org/2000/svg">
<rect x="0.5" y="0.5" width="39" height="39" rx="7.5" fill="#EBF8FF"/>
<rect x="0.5" y="0.5" width="39" height="39" rx="7.5" stroke="#007DF1"/>
<path d="M16.25 12.5H22.1667C24.0335 12.5 24.9669 12.5 25.68 12.8633C26.3072 13.1829 26.8171 13.6928 27.1367 14.32C27.5 15.0331 27.5 15.9665 27.5 17.8333V23.75M15.1667 27.5H21.9167C22.8501 27.5 23.3168 27.5 23.6733 27.3183C23.9869 27.1586 24.2419 26.9036 24.4017 26.59C24.5833 26.2335 24.5833 25.7668 24.5833 24.8333V18.0833C24.5833 17.1499 24.5833 16.6832 24.4017 16.3267C24.2419 16.0131 23.9869 15.7581 23.6733 15.5983C23.3168 15.4167 22.8501 15.4167 21.9167 15.4167H15.1667C14.2332 15.4167 13.7665 15.4167 13.41 15.5983C13.0964 15.7581 12.8414 16.0131 12.6817 16.3267C12.5 16.6832 12.5 17.1499 12.5 18.0833V24.8333C12.5 25.7668 12.5 26.2335 12.6817 26.59C12.8414 26.9036 13.0964 27.1586 13.41 27.3183C13.7665 27.5 14.2332 27.5 15.1667 27.5Z" stroke="#007DF1" stroke-width="2" stroke-linecap="round" stroke-linejoin="round"/>
</svg>
