<svg width="20" height="20" viewBox="0 0 20 20" fill="none" xmlns="http://www.w3.org/2000/svg">
<path d="M17.0711 2.92895C15.1823 1.04016 12.6711 0 10 0C7.32891 0 4.8177 1.04016 2.92891 2.92895C1.04016 4.8177 0 7.32891 0 10C0 12.6711 1.04016 15.1823 2.92891 17.0711C4.8177 18.9598 7.32891 20 10 20C12.6711 20 15.1823 18.9598 17.0711 17.0711C18.9598 15.1823 20 12.6711 20 10C20 7.32891 18.9598 4.8177 17.0711 2.92895ZM10 2.23684C13.9368 2.23684 17.1983 5.1825 17.6969 8.98547L12.8847 8.5168C12.3452 7.47168 11.255 6.755 10 6.755C8.74496 6.755 7.65484 7.47168 7.11527 8.5168L2.30312 8.98547C2.80172 5.1825 6.0632 2.23684 10 2.23684ZM2.30035 10.9912L7.05547 11.3617C7.35586 12.0082 7.86285 12.54 8.49141 12.8716L8.80305 17.6708C5.41066 17.1436 2.73824 14.4118 2.30035 10.9912ZM10 11.0082C9.44406 11.0082 8.99184 10.5559 8.99184 10C8.99184 9.4441 9.44414 8.99184 10 8.99184C10.5559 8.99184 11.0082 9.44414 11.0082 10C11.0082 10.5559 10.5559 11.0082 10 11.0082ZM11.197 17.6708L11.5087 12.8716C12.1372 12.5401 12.6442 12.0082 12.9446 11.3617L17.6997 10.9912C17.2618 14.4118 14.5893 17.1436 11.197 17.6708Z" fill="#737373"/>
</svg>
