<svg width="20" height="19" viewBox="0 0 20 19" fill="none" xmlns="http://www.w3.org/2000/svg">
<path d="M18.3337 9.73332V12.3166C18.3337 14.1835 18.3337 15.1169 17.9703 15.83C17.6508 16.4572 17.1408 16.9671 16.5136 17.2867C15.8006 17.65 14.8672 17.65 13.0003 17.65H7.00033C5.13348 17.65 4.20006 17.65 3.48702 17.2867C2.85982 16.9671 2.34988 16.4572 2.0303 15.83C1.66699 15.1169 1.66699 14.1835 1.66699 12.3167V7.98332C1.66699 6.11648 1.66699 5.18305 2.0303 4.47002C2.34988 3.84281 2.85982 3.33287 3.48702 3.0133C4.20006 2.64998 5.13348 2.64998 7.00033 2.64998H10.417M15.8337 6.81665V1.81665M13.3337 4.31665H18.3337M13.3337 10.15C13.3337 11.9909 11.8413 13.4833 10.0003 13.4833C8.15938 13.4833 6.66699 11.9909 6.66699 10.15C6.66699 8.30903 8.15938 6.81665 10.0003 6.81665C11.8413 6.81665 13.3337 8.30903 13.3337 10.15Z" stroke="#007DF1" stroke-width="2" stroke-linecap="round" stroke-linejoin="round"/>
</svg>
