<svg width="20" height="20" viewBox="0 0 20 20" fill="none" xmlns="http://www.w3.org/2000/svg">
<path d="M5.89242 12.8674C5.89242 12.5352 5.66194 12.3372 5.2553 12.3372C5.08925 12.3372 4.97679 12.3535 4.91797 12.3692V13.4349C4.98762 13.4506 5.07324 13.4558 5.19125 13.4558C5.62469 13.4558 5.89242 13.2368 5.89242 12.8674Z" fill="#007DF1"/>
<path d="M8.41041 12.3483C8.22831 12.3483 8.11062 12.364 8.04102 12.3803V14.7404C8.11066 14.7568 8.22312 14.7568 8.32479 14.7568C9.06354 14.762 9.54535 14.3554 9.54535 13.4937C9.55058 12.7444 9.11153 12.3483 8.41041 12.3483Z" fill="#007DF1"/>
<path d="M13.0865 0H5.05368C3.88016 0 2.92504 0.95578 2.92504 2.12863V9.99996H2.71713C2.2435 9.99996 1.85938 10.3837 1.85938 10.8578V16.0597C1.85938 16.5337 2.24345 16.9175 2.71713 16.9175H2.92504V17.8713C2.92504 19.0455 3.88016 20 5.05368 20H16.0141C17.1869 20 18.1421 19.0454 18.1421 17.8713V5.03791L13.0865 0ZM16.0141 18.6964H5.05368C4.59928 18.6964 4.22927 18.3263 4.22927 17.8713V16.9175H14.4466C14.9204 16.9175 15.3044 16.5337 15.3044 16.0597V10.8578C15.3044 10.3837 14.9204 9.99996 14.4466 9.99996H4.22927V2.12863C4.22927 1.67491 4.59933 1.30489 5.05368 1.30489L12.5988 1.29701V4.08595C12.5988 4.90057 13.2598 5.56216 14.075 5.56216L16.8071 5.55432L16.8378 17.8713C16.8378 18.3263 16.4685 18.6964 16.0141 18.6964Z" fill="#007DF1"/>
<path d="M3 15.725V11H5.916V11.783H3.88425V12.9643H5.781V13.7068H3.88425V14.942H5.9835V15.725H3Z" fill="white"/>
<path d="M6.42278 15.725L7.90778 13.295V13.2613L6.51053 11H7.52978L8.48828 12.647H8.54228L9.50753 11H10.52L9.12278 13.2545V13.2883L10.6145 15.725H9.59528L8.54228 13.8823H8.48828L7.44203 15.725H6.42278Z" fill="white"/>
<path d="M11.2463 15.725V11H14.1623V11.783H12.1306V12.9643H14.0273V13.7068H12.1306V14.942H14.2298V15.725H11.2463Z" fill="white"/>
</svg>
