<svg width="16" height="20" viewBox="0 0 16 20" fill="none" xmlns="http://www.w3.org/2000/svg">
<path d="M9.66732 1.89118V5.33329C9.66732 5.8 9.66732 6.03336 9.75815 6.21162C9.83804 6.36842 9.96552 6.4959 10.1223 6.5758C10.3006 6.66663 10.5339 6.66663 11.0007 6.66663H14.4428M14.6673 8.32348V14.3333C14.6673 15.7334 14.6673 16.4335 14.3948 16.9683C14.1552 17.4387 13.7727 17.8211 13.3023 18.0608C12.7675 18.3333 12.0674 18.3333 10.6673 18.3333H5.33398C3.93385 18.3333 3.23379 18.3333 2.69901 18.0608C2.2286 17.8211 1.84615 17.4387 1.60647 16.9683C1.33398 16.4335 1.33398 15.7334 1.33398 14.3333V5.66663C1.33398 4.26649 1.33398 3.56643 1.60647 3.03165C1.84615 2.56124 2.2286 2.17879 2.69901 1.93911C3.23379 1.66663 3.93385 1.66663 5.33398 1.66663H8.01046C8.62194 1.66663 8.92768 1.66663 9.2154 1.7357C9.47049 1.79694 9.71435 1.89795 9.93803 2.03503C10.1903 2.18963 10.4065 2.40582 10.8389 2.8382L13.4957 5.49505C13.9281 5.92743 14.1443 6.14362 14.2989 6.39591C14.436 6.61959 14.537 6.86346 14.5982 7.11855C14.6673 7.40627 14.6673 7.712 14.6673 8.32348Z" stroke="#007DF1" stroke-width="2" stroke-linecap="round" stroke-linejoin="round"/>
</svg>
