<svg width="40" height="40" viewBox="0 0 40 40" fill="none" xmlns="http://www.w3.org/2000/svg">
<rect x="0.5" y="0.5" width="39" height="39" rx="7.5" fill="white"/>
<rect x="0.5" y="0.5" width="39" height="39" rx="7.5" stroke="#007DF1"/>
<path d="M12.8213 14.7224C12.191 14.018 11.8758 13.6657 11.8639 13.3664C11.8536 13.1064 11.9654 12.8564 12.166 12.6907C12.397 12.5 12.8697 12.5 13.8149 12.5H26.184C27.1293 12.5 27.6019 12.5 27.8329 12.6907C28.0336 12.8564 28.1453 13.1064 28.135 13.3664C28.1231 13.6657 27.808 14.018 27.1777 14.7224L22.4225 20.037C22.2968 20.1774 22.234 20.2477 22.1892 20.3276C22.1495 20.3984 22.1203 20.4747 22.1027 20.554C22.0828 20.6435 22.0828 20.7377 22.0828 20.9261V25.382C22.0828 25.5449 22.0828 25.6264 22.0565 25.6969C22.0333 25.7591 21.9955 25.8149 21.9463 25.8596C21.8907 25.9102 21.815 25.9404 21.6637 26.001L18.8304 27.1343C18.5241 27.2568 18.371 27.3181 18.248 27.2925C18.1405 27.2702 18.0462 27.2063 17.9855 27.1148C17.9161 27.0101 17.9161 26.8452 17.9161 26.5153V20.9261C17.9161 20.7377 17.9161 20.6435 17.8962 20.554C17.8786 20.4747 17.8494 20.3984 17.8097 20.3276C17.7649 20.2477 17.7021 20.1774 17.5765 20.037L12.8213 14.7224Z" stroke="#007DF1" stroke-width="2" stroke-linecap="round" stroke-linejoin="round"/>
</svg>
