<svg width="18" height="19" viewBox="0 0 18 19" fill="none" xmlns="http://www.w3.org/2000/svg">
<path d="M10.7595 5.25181H15.7839C16.1566 5.25181 16.343 5.25181 16.452 5.33018C16.5471 5.39856 16.609 5.5038 16.6226 5.62014C16.6382 5.75348 16.5477 5.9164 16.3667 6.24224L15.142 8.44657C15.0764 8.56474 15.0436 8.62382 15.0307 8.68639C15.0193 8.74177 15.0193 8.79889 15.0307 8.85427C15.0436 8.91684 15.0764 8.97592 15.142 9.09409L16.3667 11.2984C16.5477 11.6243 16.6382 11.7872 16.6226 11.9205C16.609 12.0369 16.5471 12.1421 16.452 12.2105C16.343 12.2888 16.1566 12.2888 15.7839 12.2888H9.45394C8.98723 12.2888 8.75387 12.2888 8.57561 12.198C8.41881 12.1181 8.29133 11.9906 8.21143 11.8338C8.12061 11.6556 8.1206 11.4222 8.1206 10.9555V8.77033M5.04191 17.5669L1.52339 3.49278M2.84287 8.77037H9.42617C9.89288 8.77037 10.1262 8.77037 10.3045 8.67955C10.4613 8.59965 10.5888 8.47217 10.6687 8.31537C10.7595 8.13711 10.7595 7.90375 10.7595 7.43704V3.06667C10.7595 2.59996 10.7595 2.36661 10.6687 2.18835C10.5888 2.03154 10.4613 1.90406 10.3045 1.82417C10.1262 1.73334 9.89288 1.73334 9.42617 1.73334H2.79126C2.20916 1.73334 1.91811 1.73334 1.71904 1.85395C1.54457 1.95966 1.41493 2.1257 1.35469 2.32061C1.28596 2.54298 1.35656 2.82534 1.49774 3.39006L2.84287 8.77037Z" stroke="#007DF1" stroke-width="2" stroke-linecap="round" stroke-linejoin="round"/>
</svg>
