<svg width="17" height="15" viewBox="0 0 17 15" fill="none" xmlns="http://www.w3.org/2000/svg">
<path d="M0.791992 0.916016V14.75H16.7354V0.916016H0.791992ZM4.65918 3.16602C5.11621 3.16602 5.50586 3.32715 5.82812 3.64941C6.15039 3.97168 6.31152 4.36133 6.31152 4.81836C6.31152 5.27539 6.15039 5.66504 5.82812 5.9873C5.50586 6.30957 5.11621 6.4707 4.65918 6.4707C4.20215 6.4707 3.8125 6.30957 3.49023 5.9873C3.16797 5.66504 3.00684 5.27539 3.00684 4.81836C3.00684 4.36133 3.16797 3.97168 3.49023 3.64941C3.8125 3.32715 4.20215 3.16602 4.65918 3.16602ZM15.7861 13.748H1.72363L1.77637 11.7441L4.76465 9.44141L7.62988 11.6562L11.7959 7.01562L15.8037 11.7266L15.7861 13.748Z" fill="#464646"/>
</svg>
