<svg width="40" height="40" viewBox="0 0 40 40" fill="none" xmlns="http://www.w3.org/2000/svg">
<rect x="0.5" y="0.5" width="39" height="39" rx="7.5" fill="#EBF8FF"/>
<rect x="0.5" y="0.5" width="39" height="39" rx="7.5" stroke="#007DF1"/>
<path d="M16.6667 12.5H16.5C15.0999 12.5 14.3998 12.5 13.865 12.7725C13.3946 13.0122 13.0122 13.3946 12.7725 13.865C12.5 14.3998 12.5 15.0999 12.5 16.5V16.6667M16.6667 27.5H16.5C15.0999 27.5 14.3998 27.5 13.865 27.2275C13.3946 26.9878 13.0122 26.6054 12.7725 26.135C12.5 25.6002 12.5 24.9001 12.5 23.5V23.3333M27.5 16.6667V16.5C27.5 15.0999 27.5 14.3998 27.2275 13.865C26.9878 13.3946 26.6054 13.0122 26.135 12.7725C25.6002 12.5 24.9001 12.5 23.5 12.5H23.3333M27.5 23.3333V23.5C27.5 24.9001 27.5 25.6002 27.2275 26.135C26.9878 26.6054 26.6054 26.9878 26.135 27.2275C25.6002 27.5 24.9001 27.5 23.5 27.5H23.3333" stroke="#007DF1" stroke-width="2" stroke-linecap="round" stroke-linejoin="round"/>
</svg>
