<svg width="40" height="40" viewBox="0 0 40 40" fill="none" xmlns="http://www.w3.org/2000/svg">
<rect x="0.5" y="0.5" width="39" height="39" rx="7.5" fill="#EBF8FF"/>
<rect x="0.5" y="0.5" width="39" height="39" rx="7.5" stroke="#007DF1"/>
<path d="M16.6667 12.5H15.1667C14.2332 12.5 13.7665 12.5 13.41 12.6817C13.0964 12.8414 12.8414 13.0964 12.6817 13.41C12.5 13.7665 12.5 14.2332 12.5 15.1667V16.6667M16.6667 27.5H15.1667C14.2332 27.5 13.7665 27.5 13.41 27.3183C13.0964 27.1586 12.8414 26.9036 12.6817 26.59C12.5 26.2335 12.5 25.7668 12.5 24.8333V23.3333M27.5 16.6667V15.1667C27.5 14.2332 27.5 13.7665 27.3183 13.41C27.1586 13.0964 26.9036 12.8414 26.59 12.6817C26.2335 12.5 25.7668 12.5 24.8333 12.5H23.3333M27.5 23.3333V24.8333C27.5 25.7668 27.5 26.2335 27.3183 26.59C27.1586 26.9036 26.9036 27.1586 26.59 27.3183C26.2335 27.5 25.7668 27.5 24.8333 27.5H23.3333M20 24.1667L20 15.8333M15.8333 20H24.1667" stroke="#007DF1" stroke-width="2" stroke-linecap="round" stroke-linejoin="round"/>
</svg>
