<svg width="19" height="16" viewBox="0 0 19 16" fill="none" xmlns="http://www.w3.org/2000/svg">
<path d="M11.332 3.83337H13.2797C13.4836 3.83337 13.5855 3.83337 13.6814 3.8564C13.7664 3.87681 13.8477 3.91048 13.9223 3.95617C14.0064 4.00771 14.0784 4.07977 14.2226 4.2239L17.6082 7.60952C17.7523 7.75364 17.8244 7.82571 17.8759 7.9098C17.9216 7.98436 17.9553 8.06565 17.9757 8.15068C17.9987 8.24659 17.9987 8.3485 17.9987 8.55233V10.9167C17.9987 11.305 17.9987 11.4991 17.9353 11.6523C17.8507 11.8565 17.6885 12.0187 17.4843 12.1033C17.3311 12.1667 17.137 12.1667 16.7487 12.1667M12.582 12.1667H11.332M11.332 12.1667V4.00004C11.332 3.06662 11.332 2.59991 11.1504 2.24339C10.9906 1.92979 10.7356 1.67482 10.422 1.51503C10.0655 1.33337 9.59879 1.33337 8.66537 1.33337H3.9987C3.06528 1.33337 2.59857 1.33337 2.24205 1.51503C1.92844 1.67482 1.67348 1.92979 1.51369 2.24339C1.33203 2.59991 1.33203 3.06662 1.33203 4.00004V10.5C1.33203 11.4205 2.07822 12.1667 2.9987 12.1667M11.332 12.1667H7.9987M7.9987 12.1667C7.9987 13.5474 6.87941 14.6667 5.4987 14.6667C4.11799 14.6667 2.9987 13.5474 2.9987 12.1667M7.9987 12.1667C7.9987 10.786 6.87941 9.66671 5.4987 9.66671C4.11799 9.66671 2.9987 10.786 2.9987 12.1667M16.7487 12.5834C16.7487 13.734 15.816 14.6667 14.6654 14.6667C13.5148 14.6667 12.582 13.734 12.582 12.5834C12.582 11.4328 13.5148 10.5 14.6654 10.5C15.816 10.5 16.7487 11.4328 16.7487 12.5834Z" stroke="white" stroke-width="2" stroke-linecap="round" stroke-linejoin="round"/>
</svg>
