<svg width="19" height="20" viewBox="0 0 19 20" fill="none" xmlns="http://www.w3.org/2000/svg">
<path d="M16.1665 10.0001C16.1665 13.682 13.1817 16.6667 9.49984 16.6667M16.1665 10.0001C16.1665 6.31818 13.1817 3.33341 9.49984 3.33341M16.1665 10.0001H17.8332M9.49984 16.6667C5.81794 16.6667 2.83317 13.682 2.83317 10.0001M9.49984 16.6667V18.3334M2.83317 10.0001C2.83317 6.31818 5.81794 3.33341 9.49984 3.33341M2.83317 10.0001H1.1665M9.49984 3.33341V1.66675M11.9998 10.0001C11.9998 11.3808 10.8805 12.5001 9.49984 12.5001C8.11913 12.5001 6.99984 11.3808 6.99984 10.0001C6.99984 8.61937 8.11913 7.50008 9.49984 7.50008C10.8805 7.50008 11.9998 8.61937 11.9998 10.0001Z" stroke="white" stroke-width="2" stroke-linecap="round" stroke-linejoin="round"/>
</svg>
