<svg width="19" height="16" viewBox="0 0 19 16" fill="none" xmlns="http://www.w3.org/2000/svg">
<path d="M11.332 3.83334H13.2797C13.4836 3.83334 13.5855 3.83334 13.6814 3.85637C13.7664 3.87678 13.8477 3.91045 13.9223 3.95614C14.0064 4.00768 14.0784 4.07974 14.2226 4.22387L17.6082 7.60949C17.7523 7.75361 17.8244 7.82568 17.8759 7.90977C17.9216 7.98433 17.9553 8.06562 17.9757 8.15065C17.9987 8.24656 17.9987 8.34847 17.9987 8.55229V10.9167C17.9987 11.305 17.9987 11.4991 17.9353 11.6522C17.8507 11.8564 17.6885 12.0187 17.4843 12.1032C17.3311 12.1667 17.137 12.1667 16.7487 12.1667M12.582 12.1667H11.332M11.332 12.1667V4.00001C11.332 3.06659 11.332 2.59988 11.1504 2.24336C10.9906 1.92976 10.7356 1.67479 10.422 1.515C10.0655 1.33334 9.59879 1.33334 8.66537 1.33334H3.9987C3.06528 1.33334 2.59857 1.33334 2.24205 1.515C1.92844 1.67479 1.67348 1.92976 1.51369 2.24336C1.33203 2.59988 1.33203 3.06659 1.33203 4.00001V10.5C1.33203 11.4205 2.07822 12.1667 2.9987 12.1667M11.332 12.1667H7.9987M7.9987 12.1667C7.9987 13.5474 6.87941 14.6667 5.4987 14.6667C4.11799 14.6667 2.9987 13.5474 2.9987 12.1667M7.9987 12.1667C7.9987 10.786 6.87941 9.66668 5.4987 9.66668C4.11799 9.66668 2.9987 10.786 2.9987 12.1667M16.7487 12.5833C16.7487 13.7339 15.816 14.6667 14.6654 14.6667C13.5148 14.6667 12.582 13.7339 12.582 12.5833C12.582 11.4328 13.5148 10.5 14.6654 10.5C15.816 10.5 16.7487 11.4328 16.7487 12.5833Z" stroke="#697586" stroke-width="2" stroke-linecap="round" stroke-linejoin="round"/>
</svg>
