<svg width="17" height="17" viewBox="0 0 17 17" fill="none" xmlns="http://www.w3.org/2000/svg">
<path d="M11.0421 6.00012H3.08333C1.93274 6.00012 1 5.06738 1 3.91679C1 2.7662 1.93274 1.83346 3.08333 1.83346H11.0421M5.95791 15.1668H13.9167C15.0673 15.1668 16 14.234 16 13.0835C16 11.9329 15.0673 11.0001 13.9167 11.0001H5.95791M1 13.0835C1 14.6943 2.30584 16.0001 3.91667 16.0001C5.5275 16.0001 6.83333 14.6943 6.83333 13.0835C6.83333 11.4726 5.5275 10.1668 3.91667 10.1668C2.30584 10.1668 1 11.4726 1 13.0835ZM16 3.91679C16 5.52762 14.6942 6.83346 13.0833 6.83346C11.4725 6.83346 10.1667 5.52762 10.1667 3.91679C10.1667 2.30596 11.4725 1.00012 13.0833 1.00012C14.6942 1.00012 16 2.30596 16 3.91679Z" stroke="#007DF1" stroke-width="2" stroke-linecap="round" stroke-linejoin="round"/>
</svg>
