<svg width="19" height="20" viewBox="0 0 19 20" fill="none" xmlns="http://www.w3.org/2000/svg">
<path d="M16.1665 9.99996C16.1665 13.6819 13.1817 16.6666 9.49984 16.6666M16.1665 9.99996C16.1665 6.31806 13.1817 3.33329 9.49984 3.33329M16.1665 9.99996H17.8332M9.49984 16.6666C5.81794 16.6666 2.83317 13.6819 2.83317 9.99996M9.49984 16.6666V18.3333M2.83317 9.99996C2.83317 6.31806 5.81794 3.33329 9.49984 3.33329M2.83317 9.99996H1.1665M9.49984 3.33329V1.66663M11.9998 9.99996C11.9998 11.3807 10.8805 12.5 9.49984 12.5C8.11913 12.5 6.99984 11.3807 6.99984 9.99996C6.99984 8.61925 8.11913 7.49996 9.49984 7.49996C10.8805 7.49996 11.9998 8.61925 11.9998 9.99996Z" stroke="#007DF1" stroke-width="2" stroke-linecap="round" stroke-linejoin="round"/>
</svg>
