<svg width="21" height="21" viewBox="0 0 21 21" fill="none" xmlns="http://www.w3.org/2000/svg">
<path d="M14.525 19.125H5.64256C5.06199 19.125 4.7717 19.125 4.63728 19.0102C4.52065 18.9106 4.45875 18.7611 4.47079 18.6082C4.48466 18.432 4.68992 18.2267 5.10045 17.8162L13.2491 9.66756C13.6286 9.28805 13.8184 9.09829 14.0372 9.02719C14.2297 8.96465 14.437 8.96465 14.6295 9.02719C14.8483 9.09829 15.038 9.28805 15.4176 9.66756L19.125 13.375V14.525M14.525 19.125C16.1352 19.125 16.9402 19.125 17.5552 18.8116C18.0962 18.536 18.536 18.0962 18.8116 17.5552C19.125 16.9402 19.125 16.1352 19.125 14.525M14.525 19.125H6.475C4.86485 19.125 4.05977 19.125 3.44478 18.8116C2.90381 18.536 2.46399 18.0962 2.18836 17.5552C1.875 16.9402 1.875 16.1352 1.875 14.525V6.475C1.875 4.86485 1.875 4.05977 2.18836 3.44478C2.46399 2.90381 2.90381 2.46399 3.44478 2.18836C4.05977 1.875 4.86485 1.875 6.475 1.875H14.525C16.1352 1.875 16.9402 1.875 17.5552 2.18836C18.0962 2.46399 18.536 2.90381 18.8116 3.44478C19.125 4.05977 19.125 4.86485 19.125 6.475V14.525M9.0625 7.14583C9.0625 8.20438 8.20438 9.0625 7.14583 9.0625C6.08729 9.0625 5.22917 8.20438 5.22917 7.14583C5.22917 6.08729 6.08729 5.22917 7.14583 5.22917C8.20438 5.22917 9.0625 6.08729 9.0625 7.14583Z" stroke="#007DF1" stroke-width="2" stroke-linecap="round" stroke-linejoin="round"/>
</svg>
