<svg width="20" height="18" viewBox="0 0 20 18" fill="none" xmlns="http://www.w3.org/2000/svg">
<path d="M16.4297 4.83325L15.2393 13.1666M5.12035 4.83333L3.63225 13.1667M15.0013 3.16667L6.66797 3.16667M13.3346 14.8333L5.0013 14.8333M4.66797 4.83333H5.33464C5.80135 4.83333 6.0347 4.83333 6.21296 4.74251C6.36976 4.66261 6.49725 4.53513 6.57714 4.37833C6.66797 4.20007 6.66797 3.96671 6.66797 3.5V2.83333C6.66797 2.36662 6.66797 2.13327 6.57714 1.95501C6.49725 1.79821 6.36976 1.67072 6.21296 1.59083C6.0347 1.5 5.80135 1.5 5.33464 1.5H4.66797C4.20126 1.5 3.9679 1.5 3.78964 1.59083C3.63284 1.67072 3.50536 1.79821 3.42546 1.95501C3.33464 2.13327 3.33464 2.36662 3.33464 2.83333V3.5C3.33464 3.96671 3.33464 4.20007 3.42546 4.37833C3.50536 4.53513 3.63284 4.66261 3.78964 4.74251C3.9679 4.83333 4.20126 4.83333 4.66797 4.83333ZM3.0013 16.5H3.66797C4.13468 16.5 4.36803 16.5 4.54629 16.4092C4.7031 16.3293 4.83058 16.2018 4.91047 16.045C5.0013 15.8667 5.0013 15.6334 5.0013 15.1667V14.5C5.0013 14.0333 5.0013 13.7999 4.91047 13.6217C4.83058 13.4649 4.7031 13.3374 4.54629 13.2575C4.36803 13.1667 4.13468 13.1667 3.66797 13.1667H3.0013C2.53459 13.1667 2.30124 13.1667 2.12298 13.2575C1.96617 13.3374 1.83869 13.4649 1.7588 13.6217C1.66797 13.7999 1.66797 14.0333 1.66797 14.5V15.1667C1.66797 15.6334 1.66797 15.8667 1.7588 16.045C1.83869 16.2018 1.96617 16.3293 2.12298 16.4092C2.30124 16.5 2.53459 16.5 3.0013 16.5ZM16.3346 4.83333H17.0013C17.468 4.83333 17.7014 4.83333 17.8796 4.74251C18.0364 4.66261 18.1639 4.53513 18.2438 4.37833C18.3346 4.20007 18.3346 3.96671 18.3346 3.5V2.83333C18.3346 2.36662 18.3346 2.13327 18.2438 1.95501C18.1639 1.79821 18.0364 1.67072 17.8796 1.59083C17.7014 1.5 17.468 1.5 17.0013 1.5H16.3346C15.8679 1.5 15.6346 1.5 15.4563 1.59083C15.2995 1.67072 15.172 1.79821 15.0921 1.95501C15.0013 2.13327 15.0013 2.36662 15.0013 2.83333V3.5C15.0013 3.96671 15.0013 4.20007 15.0921 4.37833C15.172 4.53513 15.2995 4.66261 15.4563 4.74251C15.6346 4.83333 15.8679 4.83333 16.3346 4.83333ZM14.668 16.5H15.3346C15.8013 16.5 16.0347 16.5 16.213 16.4092C16.3698 16.3293 16.4972 16.2018 16.5771 16.045C16.668 15.8667 16.668 15.6334 16.668 15.1667V14.5C16.668 14.0333 16.668 13.7999 16.5771 13.6217C16.4972 13.4649 16.3698 13.3374 16.213 13.2575C16.0347 13.1667 15.8013 13.1667 15.3346 13.1667H14.668C14.2013 13.1667 13.9679 13.1667 13.7896 13.2575C13.6328 13.3374 13.5054 13.4649 13.4255 13.6217C13.3346 13.7999 13.3346 14.0333 13.3346 14.5V15.1667C13.3346 15.6334 13.3346 15.8667 13.4255 16.045C13.5054 16.2018 13.6328 16.3293 13.7896 16.4092C13.9679 16.5 14.2013 16.5 14.668 16.5Z" stroke="white" stroke-width="2" stroke-linecap="round" stroke-linejoin="round"/>
</svg>
