<svg width="40" height="40" viewBox="0 0 40 40" fill="none" xmlns="http://www.w3.org/2000/svg">
<rect x="0.5" y="0.5" width="39" height="39" rx="7.5" fill="#EBF8FF"/>
<rect x="0.5" y="0.5" width="39" height="39" rx="7.5" stroke="#007DF1"/>
<path d="M27.5 20L17.5 20M27.5 15L17.5 15M27.5 25L17.5 25M14.1667 20C14.1667 20.4602 13.7936 20.8333 13.3333 20.8333C12.8731 20.8333 12.5 20.4602 12.5 20C12.5 19.5398 12.8731 19.1667 13.3333 19.1667C13.7936 19.1667 14.1667 19.5398 14.1667 20ZM14.1667 15C14.1667 15.4602 13.7936 15.8333 13.3333 15.8333C12.8731 15.8333 12.5 15.4602 12.5 15C12.5 14.5398 12.8731 14.1667 13.3333 14.1667C13.7936 14.1667 14.1667 14.5398 14.1667 15ZM14.1667 25C14.1667 25.4602 13.7936 25.8333 13.3333 25.8333C12.8731 25.8333 12.5 25.4602 12.5 25C12.5 24.5398 12.8731 24.1667 13.3333 24.1667C13.7936 24.1667 14.1667 24.5398 14.1667 25Z" stroke="#007DF1" stroke-width="2" stroke-linecap="round" stroke-linejoin="round"/>
</svg>
