<svg width="65" height="17" viewBox="0 0 65 17" fill="none" xmlns="http://www.w3.org/2000/svg">
<path d="M7.17285 9.66211H8.1709C8.1709 10.3776 7.96582 10.9154 7.55566 11.2754C7.15007 11.6309 6.59863 11.8086 5.90137 11.8086C5.41829 11.8086 4.99902 11.6969 4.64355 11.4736C4.29264 11.2503 4.01921 10.9404 3.82324 10.5439C3.63184 10.1475 3.53613 9.68717 3.53613 9.16309V8.37695C3.53613 7.85286 3.63184 7.39258 3.82324 6.99609C4.01921 6.59961 4.29264 6.28971 4.64355 6.06641C4.99902 5.8431 5.41829 5.73145 5.90137 5.73145C6.59863 5.73145 7.15234 5.90918 7.5625 6.26465C7.97266 6.62012 8.17773 7.1556 8.17773 7.87109H7.17969C7.17969 7.41992 7.07031 7.09635 6.85156 6.90039C6.63737 6.70443 6.32064 6.60645 5.90137 6.60645C5.60059 6.60645 5.34766 6.68164 5.14258 6.83203C4.9375 6.98242 4.78255 7.19206 4.67773 7.46094C4.57292 7.72526 4.52051 8.02832 4.52051 8.37012V9.16309C4.52051 9.50944 4.57292 9.81706 4.67773 10.0859C4.78255 10.3503 4.9375 10.5576 5.14258 10.708C5.34766 10.8584 5.60059 10.9336 5.90137 10.9336C6.32064 10.9336 6.63737 10.8356 6.85156 10.6396C7.06576 10.4437 7.17285 10.1178 7.17285 9.66211ZM1.92969 8.7666C1.92969 9.37272 2.03451 9.93783 2.24414 10.4619C2.45378 10.986 2.74544 11.444 3.11914 11.8359C3.49284 12.2279 3.92578 12.5332 4.41797 12.752C4.91016 12.9707 5.43652 13.0801 5.99707 13.0801C6.55762 13.0801 7.08171 12.9707 7.56934 12.752C8.06152 12.5332 8.49219 12.2279 8.86133 11.8359C9.23503 11.444 9.52669 10.986 9.73633 10.4619C9.94596 9.93783 10.0508 9.37272 10.0508 8.7666C10.0508 8.15592 9.94596 7.59082 9.73633 7.07129C9.52669 6.55176 9.23503 6.09831 8.86133 5.71094C8.49219 5.31901 8.06152 5.01595 7.56934 4.80176C7.08171 4.58301 6.55762 4.47363 5.99707 4.47363C5.43652 4.47363 4.91016 4.58301 4.41797 4.80176C3.92578 5.01595 3.49284 5.31901 3.11914 5.71094C2.74544 6.09831 2.45378 6.55176 2.24414 7.07129C2.03451 7.59082 1.92969 8.15592 1.92969 8.7666ZM1.14355 8.7666C1.14355 8.04199 1.26888 7.36979 1.51953 6.75C1.77018 6.13021 2.11882 5.59017 2.56543 5.12988C3.01204 4.66504 3.52702 4.30501 4.11035 4.0498C4.69824 3.79004 5.32715 3.66016 5.99707 3.66016C6.66699 3.66016 7.29362 3.79004 7.87695 4.0498C8.46484 4.30501 8.97982 4.66504 9.42188 5.12988C9.86849 5.59017 10.2171 6.13021 10.4678 6.75C10.7184 7.36979 10.8438 8.04199 10.8438 8.7666C10.8438 9.49121 10.7184 10.1634 10.4678 10.7832C10.2171 11.403 9.86849 11.9476 9.42188 12.417C8.97982 12.8818 8.46484 13.2441 7.87695 13.5039C7.29362 13.7637 6.66699 13.8936 5.99707 13.8936C5.32715 13.8936 4.69824 13.7637 4.11035 13.5039C3.52702 13.2441 3.01204 12.8818 2.56543 12.417C2.11882 11.9476 1.77018 11.403 1.51953 10.7832C1.26888 10.1634 1.14355 9.49121 1.14355 8.7666ZM19.833 4.67871L16.5381 13.75H15.1914L18.9854 3.79688H19.8535L19.833 4.67871ZM22.5947 13.75L19.293 4.67871L19.2725 3.79688H20.1406L23.9482 13.75H22.5947ZM22.4238 10.0654V11.1455H16.832V10.0654H22.4238ZM26.3545 7.93262V13.75H25.0898V6.35352H26.2861L26.3545 7.93262ZM26.0537 9.77148L25.5273 9.75098C25.5319 9.24512 25.6071 8.77799 25.7529 8.34961C25.8988 7.91667 26.1038 7.54069 26.3682 7.22168C26.6325 6.90267 26.9469 6.65658 27.3115 6.4834C27.6807 6.30566 28.0885 6.2168 28.5352 6.2168C28.8997 6.2168 29.2279 6.26693 29.5195 6.36719C29.8112 6.46289 30.0596 6.61784 30.2646 6.83203C30.4743 7.04622 30.6338 7.32422 30.7432 7.66602C30.8525 8.00326 30.9072 8.41569 30.9072 8.90332V13.75H29.6357V8.88965C29.6357 8.50228 29.5788 8.19238 29.4648 7.95996C29.3509 7.72298 29.1846 7.55208 28.9658 7.44727C28.7471 7.33789 28.4782 7.2832 28.1592 7.2832C27.8447 7.2832 27.5576 7.34928 27.2979 7.48145C27.0426 7.61361 26.8216 7.7959 26.6348 8.02832C26.4525 8.26074 26.3089 8.52734 26.2041 8.82812C26.1038 9.12435 26.0537 9.4388 26.0537 9.77148ZM35.9248 6.35352V7.32422H31.9258V6.35352H35.9248ZM33.2793 4.55566H34.5439V11.918C34.5439 12.1686 34.5827 12.3577 34.6602 12.4854C34.7376 12.613 34.8379 12.6973 34.9609 12.7383C35.084 12.7793 35.2161 12.7998 35.3574 12.7998C35.4622 12.7998 35.5716 12.7907 35.6855 12.7725C35.804 12.7497 35.8929 12.7314 35.9521 12.7178L35.959 13.75C35.8587 13.7819 35.7266 13.8115 35.5625 13.8389C35.403 13.8708 35.2093 13.8867 34.9814 13.8867C34.6715 13.8867 34.3867 13.8252 34.127 13.7021C33.8672 13.5791 33.6598 13.374 33.5049 13.0869C33.3545 12.7952 33.2793 12.4033 33.2793 11.9111V4.55566ZM40.4775 13.8867C39.9626 13.8867 39.4954 13.8001 39.0762 13.627C38.6615 13.4492 38.3037 13.2008 38.0029 12.8818C37.7067 12.5628 37.4788 12.1846 37.3193 11.7471C37.1598 11.3096 37.0801 10.8311 37.0801 10.3115V10.0244C37.0801 9.42285 37.1689 8.88737 37.3467 8.41797C37.5244 7.94401 37.766 7.54297 38.0713 7.21484C38.3766 6.88672 38.723 6.63835 39.1104 6.46973C39.4977 6.30111 39.8988 6.2168 40.3135 6.2168C40.8421 6.2168 41.2979 6.30794 41.6807 6.49023C42.068 6.67253 42.3848 6.92773 42.6309 7.25586C42.877 7.57943 43.0592 7.96224 43.1777 8.4043C43.2962 8.8418 43.3555 9.32031 43.3555 9.83984V10.4072H37.832V9.375H42.0908V9.2793C42.0726 8.95117 42.0042 8.63216 41.8857 8.32227C41.7718 8.01237 41.5895 7.75716 41.3389 7.55664C41.0882 7.35612 40.7464 7.25586 40.3135 7.25586C40.0264 7.25586 39.762 7.31738 39.5205 7.44043C39.279 7.55892 39.0716 7.73665 38.8984 7.97363C38.7253 8.21061 38.5908 8.5 38.4951 8.8418C38.3994 9.18359 38.3516 9.5778 38.3516 10.0244V10.3115C38.3516 10.6624 38.3994 10.9928 38.4951 11.3027C38.5954 11.6081 38.7389 11.877 38.9258 12.1094C39.1172 12.3418 39.3473 12.5241 39.6162 12.6562C39.8896 12.7884 40.1995 12.8545 40.5459 12.8545C40.9925 12.8545 41.3708 12.7633 41.6807 12.5811C41.9906 12.3988 42.2617 12.1549 42.4941 11.8496L43.2598 12.458C43.1003 12.6995 42.8975 12.9297 42.6514 13.1484C42.4053 13.3672 42.1022 13.5449 41.7422 13.6816C41.3867 13.8184 40.9652 13.8867 40.4775 13.8867ZM46.0967 7.93262V13.75H44.832V6.35352H46.0283L46.0967 7.93262ZM45.7959 9.77148L45.2695 9.75098C45.2741 9.24512 45.3493 8.77799 45.4951 8.34961C45.641 7.91667 45.846 7.54069 46.1104 7.22168C46.3747 6.90267 46.6891 6.65658 47.0537 6.4834C47.4229 6.30566 47.8307 6.2168 48.2773 6.2168C48.6419 6.2168 48.9701 6.26693 49.2617 6.36719C49.5534 6.46289 49.8018 6.61784 50.0068 6.83203C50.2165 7.04622 50.376 7.32422 50.4854 7.66602C50.5947 8.00326 50.6494 8.41569 50.6494 8.90332V13.75H49.3779V8.88965C49.3779 8.50228 49.321 8.19238 49.207 7.95996C49.0931 7.72298 48.9268 7.55208 48.708 7.44727C48.4893 7.33789 48.2204 7.2832 47.9014 7.2832C47.5869 7.2832 47.2998 7.34928 47.04 7.48145C46.7848 7.61361 46.5638 7.7959 46.377 8.02832C46.1947 8.26074 46.0511 8.52734 45.9463 8.82812C45.846 9.12435 45.7959 9.4388 45.7959 9.77148ZM52.2354 10.1338V9.97656C52.2354 9.44336 52.3128 8.94889 52.4678 8.49316C52.6227 8.03288 52.846 7.63411 53.1377 7.29688C53.4294 6.95508 53.7826 6.69076 54.1973 6.50391C54.612 6.3125 55.0768 6.2168 55.5918 6.2168C56.1113 6.2168 56.5785 6.3125 56.9932 6.50391C57.4124 6.69076 57.7679 6.95508 58.0596 7.29688C58.3558 7.63411 58.5814 8.03288 58.7363 8.49316C58.8913 8.94889 58.9688 9.44336 58.9688 9.97656V10.1338C58.9688 10.667 58.8913 11.1615 58.7363 11.6172C58.5814 12.0729 58.3558 12.4717 58.0596 12.8135C57.7679 13.1507 57.4147 13.415 57 13.6064C56.5898 13.7933 56.125 13.8867 55.6055 13.8867C55.0859 13.8867 54.6188 13.7933 54.2041 13.6064C53.7894 13.415 53.4339 13.1507 53.1377 12.8135C52.846 12.4717 52.6227 12.0729 52.4678 11.6172C52.3128 11.1615 52.2354 10.667 52.2354 10.1338ZM53.5 9.97656V10.1338C53.5 10.5029 53.5433 10.8516 53.6299 11.1797C53.7165 11.5033 53.8464 11.7904 54.0195 12.041C54.1973 12.2917 54.4183 12.4899 54.6826 12.6357C54.9469 12.777 55.2546 12.8477 55.6055 12.8477C55.9518 12.8477 56.2549 12.777 56.5146 12.6357C56.779 12.4899 56.9977 12.2917 57.1709 12.041C57.3441 11.7904 57.474 11.5033 57.5605 11.1797C57.6517 10.8516 57.6973 10.5029 57.6973 10.1338V9.97656C57.6973 9.61198 57.6517 9.2679 57.5605 8.94434C57.474 8.61621 57.3418 8.32682 57.1641 8.07617C56.9909 7.82096 56.7721 7.62044 56.5078 7.47461C56.248 7.32878 55.9427 7.25586 55.5918 7.25586C55.2454 7.25586 54.9401 7.32878 54.6758 7.47461C54.416 7.62044 54.1973 7.82096 54.0195 8.07617C53.8464 8.32682 53.7165 8.61621 53.6299 8.94434C53.5433 9.2679 53.5 9.61198 53.5 9.97656ZM61.8193 7.51562V13.75H60.5547V6.35352H61.7852L61.8193 7.51562ZM64.1299 6.3125L64.123 7.48828C64.0182 7.46549 63.918 7.45182 63.8223 7.44727C63.7311 7.43815 63.6263 7.43359 63.5078 7.43359C63.2161 7.43359 62.9587 7.47917 62.7354 7.57031C62.512 7.66146 62.3229 7.78906 62.168 7.95312C62.013 8.11719 61.89 8.31315 61.7988 8.54102C61.7122 8.76432 61.6553 9.01042 61.6279 9.2793L61.2725 9.48438C61.2725 9.03776 61.3158 8.61849 61.4023 8.22656C61.4935 7.83464 61.6325 7.48828 61.8193 7.1875C62.0062 6.88216 62.2432 6.64518 62.5303 6.47656C62.8219 6.30339 63.1683 6.2168 63.5693 6.2168C63.6605 6.2168 63.7653 6.22819 63.8838 6.25098C64.0023 6.26921 64.0843 6.28971 64.1299 6.3125Z" fill="#414141"/>
</svg>
