<svg width="18" height="18" viewBox="0 0 18 18" fill="none" xmlns="http://www.w3.org/2000/svg">
<path d="M5.25 9.15002H5.25833M9 9.15002H9.00833M12.75 9.15002H12.7583M9 16.65C13.1421 16.65 16.5 13.2922 16.5 9.15002C16.5 5.00789 13.1421 1.65002 9 1.65002C4.85786 1.65002 1.5 5.00789 1.5 9.15002C1.5 10.1476 1.69478 11.0998 2.04839 11.9704C2.11606 12.1371 2.1499 12.2204 2.165 12.2878C2.17976 12.3536 2.18516 12.4024 2.18517 12.4699C2.18518 12.5389 2.17265 12.6141 2.14759 12.7645L1.65344 15.7294C1.60169 16.0399 1.57582 16.1951 1.62397 16.3074C1.66611 16.4056 1.7444 16.4839 1.84265 16.5261C1.95491 16.5742 2.11015 16.5483 2.42063 16.4966L5.38554 16.0024C5.53591 15.9774 5.61109 15.9648 5.68011 15.9649C5.74763 15.9649 5.79638 15.9703 5.86227 15.985C5.92962 16.0001 6.01294 16.034 6.17958 16.1016C7.05025 16.4552 8.00238 16.65 9 16.65ZM5.66667 9.15002C5.66667 9.38014 5.48012 9.56669 5.25 9.56669C5.01988 9.56669 4.83333 9.38014 4.83333 9.15002C4.83333 8.91991 5.01988 8.73336 5.25 8.73336C5.48012 8.73336 5.66667 8.91991 5.66667 9.15002ZM9.41667 9.15002C9.41667 9.38014 9.23012 9.56669 9 9.56669C8.76988 9.56669 8.58333 9.38014 8.58333 9.15002C8.58333 8.91991 8.76988 8.73336 9 8.73336C9.23012 8.73336 9.41667 8.91991 9.41667 9.15002ZM13.1667 9.15002C13.1667 9.38014 12.9801 9.56669 12.75 9.56669C12.5199 9.56669 12.3333 9.38014 12.3333 9.15002C12.3333 8.91991 12.5199 8.73336 12.75 8.73336C12.9801 8.73336 13.1667 8.91991 13.1667 9.15002Z" stroke="#007DF1" stroke-width="2" stroke-linecap="round" stroke-linejoin="round"/>
</svg>
