<svg width="21" height="20" viewBox="0 0 21 20" fill="none" xmlns="http://www.w3.org/2000/svg">
<path d="M2.7388 13.0377L4.32896 12.1197C4.41509 12.07 4.51617 12.0527 4.61392 12.071L7.74267 12.6566C7.9998 12.7047 8.23715 12.5067 8.23599 12.2452L8.2238 9.50379C8.22347 9.42931 8.24311 9.3561 8.28068 9.29179L9.85962 6.58859C9.94179 6.44791 9.93443 6.27223 9.84077 6.13892L7.18227 2.35482M16.3334 4.04929C11.75 6.25012 14.2499 9.16678 15.0834 9.58345C16.6476 10.3654 18.8229 10.4167 18.8229 10.4167C18.8297 10.2787 18.8332 10.1398 18.8332 10.0001C18.8332 5.39771 15.1022 1.66675 10.4998 1.66675C5.89746 1.66675 2.1665 5.39771 2.1665 10.0001C2.1665 14.6025 5.89746 18.3334 10.4998 18.3334C10.6396 18.3334 10.7785 18.33 10.9165 18.3232M14.4647 18.2832L11.8257 11.3259L18.783 13.9649L15.6979 15.1981L14.4647 18.2832Z" stroke="white" stroke-width="2" stroke-linecap="round" stroke-linejoin="round"/>
</svg>
