<svg width="18" height="20" viewBox="0 0 18 20" fill="none" xmlns="http://www.w3.org/2000/svg">
<path d="M4.89242 12.8674C4.89242 12.5352 4.66194 12.3372 4.2553 12.3372C4.08925 12.3372 3.97679 12.3535 3.91797 12.3692V13.4349C3.98762 13.4506 4.07324 13.4558 4.19125 13.4558C4.62469 13.4558 4.89242 13.2368 4.89242 12.8674Z" fill="#007DF1"/>
<path d="M7.41041 12.3483C7.22831 12.3483 7.11062 12.364 7.04102 12.3803V14.7404C7.11066 14.7568 7.22312 14.7568 7.32479 14.7568C8.06354 14.762 8.54535 14.3554 8.54535 13.4937C8.55058 12.7444 8.11153 12.3483 7.41041 12.3483Z" fill="#007DF1"/>
<path d="M12.0865 0H4.05368C2.88016 0 1.92504 0.95578 1.92504 2.12863V9.99996H1.71713C1.2435 9.99996 0.859375 10.3837 0.859375 10.8578V16.0597C0.859375 16.5337 1.24345 16.9175 1.71713 16.9175H1.92504V17.8713C1.92504 19.0455 2.88016 20 4.05368 20H15.0141C16.1869 20 17.1421 19.0454 17.1421 17.8713V5.03791L12.0865 0ZM3.10963 11.7965C3.36101 11.7541 3.71435 11.722 4.21218 11.722C4.71527 11.722 5.07384 11.8181 5.31476 12.011C5.5449 12.1927 5.70021 12.4928 5.70021 12.8459C5.70021 13.1989 5.58253 13.499 5.3684 13.7023C5.08989 13.9644 4.67802 14.0821 4.19621 14.0821C4.08898 14.0821 3.99286 14.0768 3.9177 14.0664V15.3563H3.10963V11.7965ZM15.0141 18.6964H4.05368C3.59928 18.6964 3.22927 18.3263 3.22927 17.8713V16.9175H13.4466C13.9204 16.9175 14.3044 16.5337 14.3044 16.0597V10.8578C14.3044 10.3837 13.9204 9.99996 13.4466 9.99996H3.22927V2.12863C3.22927 1.67491 3.59933 1.30489 4.05368 1.30489L11.5988 1.29701V4.08595C11.5988 4.90057 12.2598 5.56216 13.075 5.56216L15.8071 5.55432L15.8378 17.8713C15.8378 18.3263 15.4685 18.6964 15.0141 18.6964ZM6.22126 15.34V11.7965C6.52097 11.7488 6.9116 11.722 7.32385 11.722C8.00896 11.722 8.45323 11.8449 8.80134 12.1071C9.17596 12.3856 9.41129 12.8295 9.41129 13.4669C9.41129 14.1573 9.15991 14.6339 8.81175 14.928C8.43191 15.2438 7.85369 15.3935 7.1473 15.3935C6.72427 15.3935 6.42456 15.3667 6.22126 15.34ZM12.063 13.242V13.9056H10.7675V15.3563H9.94868V11.7488H12.1539V12.4176H10.7675V13.242H12.063Z" fill="#007DF1"/>
</svg>
