<svg width="18" height="18" viewBox="0 0 18 18" fill="none" xmlns="http://www.w3.org/2000/svg">
<path d="M12.5 16.65H4.77614C4.2713 16.65 4.01887 16.65 3.90199 16.5502C3.80056 16.4636 3.74674 16.3336 3.75721 16.2007C3.76927 16.0474 3.94776 15.8689 4.30474 15.512L11.3905 8.42617C11.7205 8.09616 11.8855 7.93115 12.0758 7.86932C12.2432 7.81494 12.4235 7.81494 12.5908 7.86932C12.7811 7.93115 12.9461 8.09615 13.2761 8.42617L16.5 11.65V12.65M12.5 16.65C13.9001 16.65 14.6002 16.65 15.135 16.3775C15.6054 16.1379 15.9878 15.7554 16.2275 15.285C16.5 14.7502 16.5 14.0502 16.5 12.65M12.5 16.65H5.5C4.09987 16.65 3.3998 16.65 2.86502 16.3775C2.39462 16.1379 2.01217 15.7554 1.77248 15.285C1.5 14.7502 1.5 14.0502 1.5 12.65V5.65002C1.5 4.24989 1.5 3.54983 1.77248 3.01505C2.01217 2.54464 2.39462 2.16219 2.86502 1.92251C3.3998 1.65002 4.09987 1.65002 5.5 1.65002H12.5C13.9001 1.65002 14.6002 1.65002 15.135 1.92251C15.6054 2.16219 15.9878 2.54464 16.2275 3.01505C16.5 3.54983 16.5 4.24989 16.5 5.65002V12.65M7.75 6.23336C7.75 7.15383 7.00381 7.90002 6.08333 7.90002C5.16286 7.90002 4.41667 7.15383 4.41667 6.23336C4.41667 5.31288 5.16286 4.56669 6.08333 4.56669C7.00381 4.56669 7.75 5.31288 7.75 6.23336Z" stroke="#007DF1" stroke-width="2" stroke-linecap="round" stroke-linejoin="round"/>
</svg>
