<svg width="37" height="37" viewBox="0 0 37 37" fill="none" xmlns="http://www.w3.org/2000/svg">
<rect x="0.5" y="0.5" width="36" height="36" rx="7.5" fill="#EBF8FF"/>
<rect x="0.5" y="0.5" width="36" height="36" rx="7.5" stroke="#007DF1"/>
<path d="M22 26H14.2761C13.7713 26 13.5189 26 13.402 25.9002C13.3006 25.8135 13.2467 25.6836 13.2572 25.5506C13.2693 25.3974 13.4478 25.2189 13.8047 24.8619L20.8905 17.7761C21.2205 17.4461 21.3855 17.2811 21.5758 17.2193C21.7432 17.1649 21.9235 17.1649 22.0908 17.2193C22.2811 17.2811 22.4461 17.4461 22.7761 17.7761L26 21V22M22 26C23.4001 26 24.1002 26 24.635 25.7275C25.1054 25.4878 25.4878 25.1054 25.7275 24.635C26 24.1002 26 23.4001 26 22M22 26H15C13.5999 26 12.8998 26 12.365 25.7275C11.8946 25.4878 11.5122 25.1054 11.2725 24.635C11 24.1002 11 23.4001 11 22V15C11 13.5999 11 12.8998 11.2725 12.365C11.5122 11.8946 11.8946 11.5122 12.365 11.2725C12.8998 11 13.5999 11 15 11H22C23.4001 11 24.1002 11 24.635 11.2725C25.1054 11.5122 25.4878 11.8946 25.7275 12.365C26 12.8998 26 13.5999 26 15V22M17.25 15.5833C17.25 16.5038 16.5038 17.25 15.5833 17.25C14.6629 17.25 13.9167 16.5038 13.9167 15.5833C13.9167 14.6629 14.6629 13.9167 15.5833 13.9167C16.5038 13.9167 17.25 14.6629 17.25 15.5833Z" stroke="#007DF1" stroke-width="2" stroke-linecap="round" stroke-linejoin="round"/>
</svg>
