<svg width="17" height="21" viewBox="0 0 17 21" fill="none" xmlns="http://www.w3.org/2000/svg">
<path d="M1 3.48963C1 2.51847 1 2.03289 1.20249 1.76522C1.37889 1.53203 1.64852 1.38773 1.9404 1.3703C2.27544 1.3503 2.67946 1.61965 3.48752 2.15835L14.0031 9.16873C14.6708 9.61385 15.0046 9.83641 15.1209 10.1169C15.2227 10.3622 15.2227 10.6378 15.1209 10.8831C15.0046 11.1636 14.6708 11.3862 14.0031 11.8313L3.48752 18.8417C2.67946 19.3804 2.27544 19.6497 1.9404 19.6297C1.64852 19.6123 1.37889 19.468 1.20249 19.2348C1 18.9671 1 18.4815 1 17.5104V3.48963Z" fill="#007DF1" stroke="#007DF1" stroke-width="2" stroke-linecap="round" stroke-linejoin="round"/>
</svg>
