<svg width="20" height="20" viewBox="0 0 20 20" fill="none" xmlns="http://www.w3.org/2000/svg">
<g clip-path="url(#clip0_1332_32844)">
<path d="M17.1287 3.23615C16.941 3.05154 16.7487 2.86385 16.5594 2.67308C16.3687 2.48385 16.181 2.29154 15.9964 2.10385C14.6794 0.76 13.8956 0 13.0779 0H6.95943C5.26328 0 3.88251 1.38077 3.88251 3.07692V8.61539H5.36174V3.06769C5.36174 2.21846 6.05097 1.52923 6.9002 1.52923L12.5364 1.52615C13.091 1.66769 13.0833 2.34923 13.0833 3.03154V5.37538C13.0833 5.79923 13.4287 6.14462 13.8525 6.14462H16.1602C16.9279 6.14462 17.6987 6.14846 17.6987 6.91385V16.9231C17.6987 17.7723 17.0094 18.4615 16.1602 18.4615H6.9002C6.05097 18.4615 5.36174 17.7723 5.36174 16.9231V14.4615H3.86328V16.9231C3.86328 18.6192 5.24405 20 6.9402 20H16.1548C17.851 20 19.2317 18.6192 19.2317 16.9231V6.15385C19.2317 5.33692 18.4717 4.55231 17.1287 3.23615Z" fill="#007DF1"/>
<path d="M3.66815 10.1815C3.55738 10.1815 3.482 10.1861 3.42969 10.1938V11.2861C3.47661 11.2915 3.53199 11.2938 3.60507 11.2938C4.01199 11.2938 4.24507 11.0792 4.24507 10.7054C4.24507 10.2731 3.93046 10.1815 3.66815 10.1815Z" fill="#007DF1"/>
<path d="M15.3849 8.46155H1.53876C1.11492 8.46155 0.769531 8.80693 0.769531 9.23078V13.8462C0.769531 14.27 1.11492 14.6154 1.53876 14.6154H15.3849C15.8088 14.6154 16.1541 14.27 16.1541 13.8462V9.23078C16.1541 8.80693 15.8088 8.46155 15.3849 8.46155ZM4.97338 11.8023C4.65645 12.13 4.18492 12.3015 3.6103 12.3015C3.54261 12.3015 3.48338 12.2985 3.4303 12.2946V13.7308C3.4303 13.7992 3.37645 13.8539 3.30799 13.8539H2.42799C2.35876 13.8539 2.30492 13.7992 2.30492 13.7308V9.39309C2.30492 9.33539 2.34722 9.28462 2.40415 9.27386C2.7303 9.21232 3.14107 9.18078 3.62799 9.18078C4.20184 9.18078 4.62107 9.30616 4.90876 9.56386C5.2003 9.81539 5.36953 10.2208 5.36953 10.6715C5.36876 11.1415 5.22799 11.5439 4.97338 11.8023ZM9.64722 13.7315C9.64722 13.8 9.59261 13.8546 9.52569 13.8546H8.59261C8.54568 13.8546 8.50338 13.8269 8.48184 13.7854L7.64261 12.0892C7.51338 11.8277 7.34953 11.4846 7.19645 11.1254C7.20568 11.5085 7.21184 11.9292 7.21184 12.4077V13.7315C7.21184 13.8 7.15645 13.8546 7.08953 13.8546H6.27415C6.20645 13.8546 6.15184 13.8 6.15184 13.7315V9.33616C6.15184 9.2677 6.20645 9.21386 6.27415 9.21386H7.31107C7.35722 9.21386 7.39876 9.23924 7.4203 9.28155L8.23645 10.8923C8.35876 11.1346 8.48492 11.4123 8.60645 11.7062C8.59338 11.3792 8.58722 11.0215 8.58722 10.6146V9.33693C8.58722 9.26847 8.64107 9.21462 8.7103 9.21462H9.52645C9.59338 9.21462 9.64799 9.26847 9.64799 9.33693L9.64722 13.7315ZM14.6341 13.5292C14.6341 13.58 14.6026 13.6262 14.5549 13.6439C14.2295 13.7677 13.7034 13.8992 13.1988 13.8992C12.4603 13.8992 11.9103 13.6939 11.5157 13.2731C11.1372 12.8639 10.928 12.2639 10.928 11.5854C10.9334 10.1162 11.8626 9.1677 13.2926 9.1677C13.8157 9.1677 14.2272 9.28155 14.438 9.38924C14.488 9.41463 14.5141 9.47078 14.5026 9.52693L14.3157 10.3292C14.3065 10.3654 14.2826 10.3962 14.2472 10.4115C14.2126 10.4277 14.1734 10.4269 14.1403 10.41C13.9711 10.3231 13.738 10.2339 13.2872 10.2339C12.5472 10.2339 12.1049 10.7185 12.1049 11.5331C12.1049 12.3469 12.5341 12.8515 13.2234 12.8515C13.3595 12.8515 13.4649 12.8392 13.5311 12.8246V12.1115H13.0472C12.9795 12.1115 12.9249 12.0569 12.9249 11.99V11.2131C12.9249 11.1462 12.9795 11.0908 13.0472 11.0908H14.5103C14.578 11.0908 14.6326 11.1462 14.6326 11.2131V13.5292H14.6341Z" fill="#007DF1"/>
</g>
<defs>
<clipPath id="clip0_1332_32844">
<rect width="20" height="20" fill="white"/>
</clipPath>
</defs>
</svg>
