<svg width="20" height="20" viewBox="0 0 20 20" fill="none" xmlns="http://www.w3.org/2000/svg">
<path d="M14.9993 5.83329V4.33329C14.9993 3.39987 14.9993 2.93316 14.8177 2.57664C14.6579 2.26304 14.4029 2.00807 14.0893 1.84828C13.7328 1.66663 13.2661 1.66663 12.3327 1.66663H7.66602C6.7326 1.66663 6.26588 1.66663 5.90937 1.84828C5.59576 2.00807 5.34079 2.26304 5.18101 2.57664C4.99935 2.93316 4.99935 3.39987 4.99935 4.33329V5.83329M4.99935 15C4.22437 15 3.83688 15 3.51897 14.9148C2.65624 14.6836 1.98237 14.0097 1.7512 13.147C1.66602 12.8291 1.66602 12.4416 1.66602 11.6666V9.83329C1.66602 8.43316 1.66602 7.7331 1.9385 7.19832C2.17818 6.72791 2.56063 6.34546 3.03104 6.10578C3.56582 5.83329 4.26588 5.83329 5.66602 5.83329H14.3327C15.7328 5.83329 16.4329 5.83329 16.9677 6.10578C17.4381 6.34546 17.8205 6.72791 18.0602 7.19832C18.3327 7.7331 18.3327 8.43316 18.3327 9.83329V11.6666C18.3327 12.4416 18.3327 12.8291 18.2475 13.147C18.0163 14.0097 17.3425 14.6836 16.4797 14.9148C16.1618 15 15.7743 15 14.9993 15M12.4993 8.74996H14.9993M7.66602 18.3333H12.3327C13.2661 18.3333 13.7328 18.3333 14.0893 18.1516C14.4029 17.9918 14.6579 17.7369 14.8177 17.4233C14.9994 17.0668 14.9993 16.6 14.9993 15.6666V14.3333C14.9993 13.3999 14.9994 12.9332 14.8177 12.5766C14.6579 12.263 14.4029 12.0081 14.0893 11.8483C13.7328 11.6666 13.2661 11.6666 12.3327 11.6666H7.66602C6.7326 11.6666 6.26588 11.6666 5.90937 11.8483C5.59576 12.0081 5.34079 12.263 5.18101 12.5766C4.99935 12.9332 4.99935 13.3999 4.99935 14.3333V15.6666C4.99935 16.6 4.99935 17.0668 5.18101 17.4233C5.34079 17.7369 5.59576 17.9918 5.90937 18.1516C6.26588 18.3333 6.73259 18.3333 7.66602 18.3333Z" stroke="#007DF1" stroke-width="2" stroke-linecap="round" stroke-linejoin="round"/>
</svg>
