<svg width="18" height="18" viewBox="0 0 18 18" fill="none" xmlns="http://www.w3.org/2000/svg">
<path d="M11.5421 6.65002H3.58333C2.43274 6.65002 1.5 5.71728 1.5 4.56669C1.5 3.4161 2.43274 2.48336 3.58333 2.48336H11.5421M6.45791 15.8167H14.4167C15.5673 15.8167 16.5 14.884 16.5 13.7334C16.5 12.5828 15.5673 11.65 14.4167 11.65H6.45791M1.5 13.7334C1.5 15.3442 2.80584 16.65 4.41667 16.65C6.0275 16.65 7.33333 15.3442 7.33333 13.7334C7.33333 12.1225 6.0275 10.8167 4.41667 10.8167C2.80584 10.8167 1.5 12.1225 1.5 13.7334ZM16.5 4.56669C16.5 6.17752 15.1942 7.48336 13.5833 7.48336C11.9725 7.48336 10.6667 6.17752 10.6667 4.56669C10.6667 2.95586 11.9725 1.65002 13.5833 1.65002C15.1942 1.65002 16.5 2.95586 16.5 4.56669Z" stroke="#007DF1" stroke-width="2" stroke-linecap="round" stroke-linejoin="round"/>
</svg>
