<svg width="41" height="41" viewBox="0 0 41 41" fill="none" xmlns="http://www.w3.org/2000/svg">
<rect x="0.5" y="0.5" width="40" height="40" rx="7.5" fill="#FF0000" fill-opacity="0.05"/>
<rect x="0.5" y="0.5" width="40" height="40" rx="7.5" stroke="#FF0000"/>
<path d="M23.8333 15.5001V14.8334C23.8333 13.9 23.8333 13.4333 23.6517 13.0768C23.4919 12.7632 23.2369 12.5082 22.9233 12.3484C22.5668 12.1667 22.1001 12.1667 21.1667 12.1667H19.8333C18.8999 12.1667 18.4332 12.1667 18.0767 12.3484C17.7631 12.5082 17.5081 12.7632 17.3483 13.0768C17.1667 13.4333 17.1667 13.9 17.1667 14.8334V15.5001M18.8333 20.0834V24.2501M22.1667 20.0834V24.2501M13 15.5001H28M26.3333 15.5001V24.8334C26.3333 26.2335 26.3333 26.9336 26.0608 27.4684C25.8212 27.9388 25.4387 28.3212 24.9683 28.5609C24.4335 28.8334 23.7335 28.8334 22.3333 28.8334H18.6667C17.2665 28.8334 16.5665 28.8334 16.0317 28.5609C15.5613 28.3212 15.1788 27.9388 14.9392 27.4684C14.6667 26.9336 14.6667 26.2335 14.6667 24.8334V15.5001" stroke="#FF0000" stroke-width="2" stroke-linecap="round" stroke-linejoin="round"/>
</svg>
