<svg width="19" height="19" viewBox="0 0 19 19" fill="none" xmlns="http://www.w3.org/2000/svg">
<path d="M10.0003 2.64998H13.5003C14.9005 2.64998 15.6005 2.64998 16.1353 2.92247C16.6057 3.16215 16.9882 3.5446 17.2278 4.01501C17.5003 4.54979 17.5003 5.24985 17.5003 6.64998V13.65C17.5003 15.0501 17.5003 15.7502 17.2278 16.285C16.9882 16.7554 16.6057 17.1378 16.1353 17.3775C15.6005 17.65 14.9005 17.65 13.5003 17.65H6.50033C5.10019 17.65 4.40013 17.65 3.86535 17.3775C3.39494 17.1378 3.01249 16.7554 2.77281 16.285C2.50033 15.7502 2.50033 15.0501 2.50033 13.65V10.15M6.66699 10.9833V14.3167M13.3337 9.31665V14.3167M10.0003 5.98332V14.3167M1.66699 4.31665L4.16699 6.81665M4.16699 6.81665L6.66699 4.31665M4.16699 6.81665L4.16699 1.81665" stroke="#007DF1" stroke-width="2" stroke-linecap="round" stroke-linejoin="round"/>
</svg>
