<svg width="21" height="15" viewBox="0 0 21 15" fill="none" xmlns="http://www.w3.org/2000/svg">
<path d="M19.9997 11.937C19.9997 13.067 19.9997 13.6321 19.7714 13.9091C19.5731 14.1497 19.2739 14.2841 18.9623 14.2724C18.6036 14.259 18.1813 13.8836 17.3367 13.1329L12.345 8.69582C11.8797 8.28223 11.6471 8.07543 11.5614 7.83125C11.4861 7.61681 11.4861 7.38312 11.5614 7.16868C11.6471 6.92449 11.8797 6.7177 12.345 6.30411L17.3367 1.86706C18.1813 1.11631 18.6036 0.740933 18.9623 0.727508C19.2739 0.715845 19.5731 0.850213 19.7714 1.09086C19.9997 1.36787 19.9997 1.93288 19.9997 3.06291V11.937Z" stroke="#000" stroke-linecap="round" stroke-linejoin="round"/>
<path d="M8.99968 11.937C8.99968 13.067 8.99968 13.6321 8.77142 13.9091C8.57311 14.1497 8.27389 14.2841 7.96228 14.2724C7.60359 14.259 7.1813 13.8836 6.3367 13.1329L1.34502 8.69582C0.879732 8.28223 0.647087 8.07543 0.561351 7.83125C0.48606 7.61681 0.48606 7.38312 0.561351 7.16868C0.647087 6.92449 0.879732 6.7177 1.34502 6.30411L6.3367 1.86706C7.1813 1.11631 7.60359 0.740933 7.96228 0.727508C8.27389 0.715845 8.57311 0.850213 8.77142 1.09086C8.99968 1.36787 8.99968 1.93288 8.99968 3.06291V11.937Z" stroke="#000" stroke-linecap="round" stroke-linejoin="round"/>
</svg>
