<svg width="21" height="15" viewBox="0 0 21 15" fill="none" xmlns="http://www.w3.org/2000/svg">
<path d="M12 11.937C12 13.0671 12 13.6321 12.2283 13.9091C12.4266 14.1497 12.7258 14.2841 13.0374 14.2725C13.3961 14.259 13.8184 13.8837 14.663 13.1329L19.6547 8.69585C20.12 8.28226 20.3526 8.07547 20.4383 7.83128C20.5136 7.61684 20.5136 7.38315 20.4383 7.16871C20.3526 6.92453 20.12 6.71773 19.6547 6.30414L14.663 1.86709C13.8184 1.11634 13.3961 0.740963 13.0374 0.727538C12.7258 0.715875 12.4266 0.850243 12.2283 1.09089C12 1.3679 12 1.93291 12 3.06295V11.937Z" stroke="black" stroke-linecap="round" stroke-linejoin="round"/>
<path d="M1 11.937C1 13.0671 1 13.6321 1.22827 13.9091C1.42657 14.1497 1.72579 14.2841 2.0374 14.2725C2.39609 14.259 2.81839 13.8837 3.66298 13.1329L8.65466 8.69585C9.11995 8.28226 9.3526 8.07547 9.43833 7.83128C9.51362 7.61684 9.51362 7.38315 9.43833 7.16871C9.3526 6.92453 9.11995 6.71773 8.65466 6.30414L3.66298 1.86709C2.81839 1.11634 2.39609 0.740963 2.0374 0.727538C1.72579 0.715875 1.42657 0.850243 1.22827 1.09089C1 1.3679 1 1.93291 1 3.06295V11.937Z" stroke="black" stroke-linecap="round" stroke-linejoin="round"/>
</svg>
