<svg width="20" height="20" viewBox="0 0 20 20" fill="none" xmlns="http://www.w3.org/2000/svg">
<path d="M9.58464 4.16675H9.94663C12.486 4.16675 13.7557 4.16675 14.2377 4.62282C14.6543 5.01705 14.8389 5.59782 14.7264 6.16026C14.5963 6.81093 13.5597 7.54413 11.4865 9.01052L8.0994 11.4063C6.02622 12.8727 4.98963 13.6059 4.8595 14.2566C4.74702 14.819 4.93165 15.3998 5.34827 15.794C5.83025 16.2501 7.09993 16.2501 9.6393 16.2501H10.418M6.66797 4.16675C6.66797 5.54746 5.54868 6.66675 4.16797 6.66675C2.78726 6.66675 1.66797 5.54746 1.66797 4.16675C1.66797 2.78604 2.78726 1.66675 4.16797 1.66675C5.54868 1.66675 6.66797 2.78604 6.66797 4.16675ZM18.3346 15.8334C18.3346 17.2141 17.2153 18.3334 15.8346 18.3334C14.4539 18.3334 13.3346 17.2141 13.3346 15.8334C13.3346 14.4527 14.4539 13.3334 15.8346 13.3334C17.2153 13.3334 18.3346 14.4527 18.3346 15.8334Z" stroke="white" stroke-width="2" stroke-linecap="round" stroke-linejoin="round"/>
</svg>
