<svg width="20" height="20" viewBox="0 0 20 20" fill="none" xmlns="http://www.w3.org/2000/svg">
<path d="M9.58268 4.16675H9.94468C12.4841 4.16675 13.7537 4.16675 14.2357 4.62282C14.6523 5.01705 14.837 5.59782 14.7245 6.16026C14.5944 6.81093 13.5578 7.54413 11.4846 9.01052L8.09745 11.4063C6.02427 12.8727 4.98767 13.6059 4.85755 14.2566C4.74506 14.819 4.9297 15.3998 5.34632 15.794C5.8283 16.2501 7.09798 16.2501 9.63735 16.2501H10.416M6.66602 4.16675C6.66602 5.54746 5.54673 6.66675 4.16602 6.66675C2.7853 6.66675 1.66602 5.54746 1.66602 4.16675C1.66602 2.78604 2.7853 1.66675 4.16602 1.66675C5.54673 1.66675 6.66602 2.78604 6.66602 4.16675ZM18.3327 15.8334C18.3327 17.2141 17.2134 18.3334 15.8327 18.3334C14.452 18.3334 13.3327 17.2141 13.3327 15.8334C13.3327 14.4527 14.452 13.3334 15.8327 13.3334C17.2134 13.3334 18.3327 14.4527 18.3327 15.8334Z" stroke="#737373" stroke-width="2" stroke-linecap="round" stroke-linejoin="round"/>
</svg>
