<svg width="40" height="40" viewBox="0 0 40 40" fill="none" xmlns="http://www.w3.org/2000/svg">
<rect x="0.5" y="0.5" width="39" height="39" rx="7.5" fill="#007DF1"/>
<rect x="0.5" y="0.5" width="39" height="39" rx="7.5" stroke="#007DF1"/>
<path d="M12.8217 14.7224C12.1915 14.018 11.8763 13.6657 11.8644 13.3664C11.8541 13.1064 11.9658 12.8564 12.1665 12.6907C12.3975 12.5 12.8702 12.5 13.8154 12.5H26.1845C27.1298 12.5 27.6024 12.5 27.8334 12.6907C28.0341 12.8564 28.1458 13.1064 28.1355 13.3664C28.1236 13.6657 27.8084 14.018 27.1782 14.7224L22.423 20.037C22.2973 20.1774 22.2345 20.2477 22.1897 20.3276C22.15 20.3984 22.1208 20.4747 22.1032 20.554C22.0833 20.6435 22.0833 20.7377 22.0833 20.9261V25.382C22.0833 25.5449 22.0833 25.6264 22.057 25.6969C22.0338 25.7591 21.996 25.8149 21.9468 25.8596C21.8912 25.9102 21.8155 25.9404 21.6642 26.001L18.8309 27.1343C18.5246 27.2568 18.3714 27.3181 18.2485 27.2925C18.141 27.2702 18.0467 27.2063 17.986 27.1148C17.9166 27.0101 17.9166 26.8452 17.9166 26.5153V20.9261C17.9166 20.7377 17.9166 20.6435 17.8967 20.554C17.8791 20.4747 17.8499 20.3984 17.8102 20.3276C17.7654 20.2477 17.7026 20.1774 17.5769 20.037L12.8217 14.7224Z" stroke="white" stroke-width="2" stroke-linecap="round" stroke-linejoin="round"/>
</svg>
