<svg width="37" height="37" viewBox="0 0 37 37" fill="none" xmlns="http://www.w3.org/2000/svg">
<rect x="0.5" y="0.5" width="36" height="36" rx="7.5" fill="#EBF8FF"/>
<rect x="0.5" y="0.5" width="36" height="36" rx="7.5" stroke="#007DF1"/>
<path d="M25.167 18.5C25.167 22.1819 22.1822 25.1667 18.5003 25.1667M25.167 18.5C25.167 14.8181 22.1822 11.8334 18.5003 11.8334M25.167 18.5H26.8337M18.5003 25.1667C14.8184 25.1667 11.8337 22.1819 11.8337 18.5M18.5003 25.1667V26.8334M11.8337 18.5C11.8337 14.8181 14.8184 11.8334 18.5003 11.8334M11.8337 18.5H10.167M18.5003 11.8334V10.1667M21.0003 18.5C21.0003 19.8807 19.881 21 18.5003 21C17.1196 21 16.0003 19.8807 16.0003 18.5C16.0003 17.1193 17.1196 16 18.5003 16C19.881 16 21.0003 17.1193 21.0003 18.5Z" stroke="#007DF1" stroke-width="2" stroke-linecap="round" stroke-linejoin="round"/>
</svg>
