<svg width="20" height="19" viewBox="0 0 20 19" fill="none" xmlns="http://www.w3.org/2000/svg">
<path d="M16.667 9.65005C16.667 13.3319 13.6822 16.3167 10.0003 16.3167M16.667 9.65005C16.667 5.96815 13.6822 2.98338 10.0003 2.98338M16.667 9.65005H18.3337M10.0003 16.3167C6.31843 16.3167 3.33366 13.3319 3.33366 9.65005M10.0003 16.3167V17.9834M3.33366 9.65005C3.33366 5.96815 6.31843 2.98338 10.0003 2.98338M3.33366 9.65005H1.66699M10.0003 2.98338V1.31671M12.5003 9.65005C12.5003 11.0308 11.381 12.15 10.0003 12.15C8.61961 12.15 7.50033 11.0308 7.50033 9.65005C7.50033 8.26933 8.61961 7.15005 10.0003 7.15005C11.381 7.15005 12.5003 8.26933 12.5003 9.65005Z" stroke="#007DF1" stroke-width="2" stroke-linecap="round" stroke-linejoin="round"/>
</svg>
