<svg width="19" height="19" viewBox="0 0 19 19" fill="none" xmlns="http://www.w3.org/2000/svg">
<path d="M2.84422 8.10376C2.3481 7.91082 2.10004 7.81435 2.02761 7.67535C1.96483 7.55485 1.96475 7.41131 2.02739 7.29074C2.09965 7.15165 2.34759 7.05489 2.84349 6.86137L16.9166 1.36942C17.3643 1.19473 17.5881 1.10738 17.7311 1.15516C17.8553 1.19665 17.9528 1.29413 17.9943 1.41833C18.0421 1.56136 17.9547 1.78518 17.78 2.23283L12.2881 16.306C12.0946 16.8018 11.9978 17.0498 11.8587 17.1221C11.7381 17.1847 11.5946 17.1846 11.4741 17.1218C11.3351 17.0494 11.2386 16.8013 11.0457 16.3052L8.85559 10.6736C8.81643 10.5728 8.79685 10.5225 8.7666 10.4801C8.7398 10.4425 8.70693 10.4096 8.66935 10.3828C8.62695 10.3526 8.5766 10.333 8.47589 10.2939L2.84422 8.10376Z" stroke="#007DF1" stroke-width="2" stroke-linecap="round" stroke-linejoin="round"/>
</svg>
