<svg width="16" height="15" viewBox="0 0 16 15" fill="none" xmlns="http://www.w3.org/2000/svg">
<path d="M15 0.5V14.5M3.59951 13.4204L9.43826 8.74939C9.97211 8.32231 10.239 8.10878 10.3357 7.8508C10.4204 7.62461 10.4204 7.37539 10.3357 7.1492C10.239 6.89122 9.97211 6.67769 9.43826 6.25061L3.59951 1.57961C2.76734 0.913872 2.35125 0.581004 2.00108 0.580625C1.69654 0.580297 1.40845 0.718761 1.21846 0.956773C1 1.23045 1 1.7633 1 2.829V12.171C1 13.2367 1 13.7695 1.21846 14.0432C1.40845 14.2812 1.69654 14.4197 2.00108 14.4194C2.35125 14.419 2.76734 14.0861 3.59951 13.4204Z" stroke="black" stroke-linecap="round" stroke-linejoin="round"/>
</svg>
