<svg width="16" height="15" viewBox="0 0 16 15" fill="none" xmlns="http://www.w3.org/2000/svg">
<path d="M1 14.5V0.5M12.4005 1.57961L6.56174 6.25061C6.02789 6.67769 5.76097 6.89122 5.66433 7.1492C5.5796 7.37539 5.5796 7.62461 5.66433 7.8508C5.76097 8.10878 6.02789 8.32231 6.56174 8.74939L12.4005 13.4204C13.2327 14.0861 13.6487 14.419 13.9989 14.4194C14.3035 14.4197 14.5916 14.2812 14.7815 14.0432C15 13.7695 15 13.2367 15 12.171V2.829C15 1.7633 15 1.23045 14.7815 0.956773C14.5916 0.718761 14.3035 0.580297 13.9989 0.580625C13.6487 0.581004 13.2327 0.913872 12.4005 1.57961Z" stroke="#000" stroke-linecap="round" stroke-linejoin="round"/>
</svg>
