<svg width="20" height="22" viewBox="0 0 20 22" fill="none" xmlns="http://www.w3.org/2000/svg">
<path d="M3.03685 20.3254C2.45216 20.5827 2.15982 20.7113 1.98042 20.6548C1.8249 20.6058 1.70303 20.4841 1.65387 20.3286C1.59717 20.1493 1.72545 19.8568 1.98203 19.2718L9.26339 2.67032C9.49501 2.14224 9.61081 1.87821 9.77271 1.79739C9.91331 1.7272 10.0787 1.7272 10.2193 1.79739C10.3812 1.87821 10.497 2.14224 10.7287 2.67032L18.01 19.2718C18.2666 19.8568 18.3949 20.1493 18.3382 20.3286C18.289 20.4841 18.1671 20.6058 18.0116 20.6548C17.8322 20.7113 17.5399 20.5827 16.9552 20.3254L10.3182 17.4051C10.1995 17.3529 10.1402 17.3268 10.0785 17.3165C10.0239 17.3074 9.96814 17.3074 9.9135 17.3165C9.85186 17.3268 9.79252 17.3529 9.67383 17.4051L3.03685 20.3254Z" fill="#4CAF50" stroke="#4CAF50" stroke-width="2" stroke-linecap="round" stroke-linejoin="round"/>
</svg>
