<svg width="20" height="22" viewBox="0 0 20 22" fill="none" xmlns="http://www.w3.org/2000/svg">
<path d="M3.03685 20.3253C2.45216 20.5826 2.15982 20.7112 1.98042 20.6547C1.8249 20.6057 1.70303 20.484 1.65387 20.3285C1.59717 20.1492 1.72545 19.8567 1.98203 19.2717L9.26339 2.6702C9.49501 2.14212 9.61081 1.87808 9.77271 1.79727C9.91331 1.72708 10.0787 1.72708 10.2193 1.79727C10.3812 1.87808 10.497 2.14212 10.7287 2.6702L18.01 19.2717C18.2666 19.8567 18.3949 20.1492 18.3382 20.3285C18.289 20.484 18.1671 20.6057 18.0116 20.6547C17.8322 20.7112 17.5399 20.5826 16.9552 20.3253L10.3182 17.405C10.1995 17.3528 10.1402 17.3267 10.0785 17.3164C10.0239 17.3072 9.96814 17.3072 9.9135 17.3164C9.85186 17.3267 9.79252 17.3528 9.67383 17.405L3.03685 20.3253Z" fill="#0000FF" stroke="#0000FF" stroke-width="2" stroke-linecap="round" stroke-linejoin="round"/>
</svg>
