<svg width="20" height="14" viewBox="0 0 20 14" fill="none" xmlns="http://www.w3.org/2000/svg">
<path d="M21.3125 7.96252H15.8125V1.46252C15.8125 1.24704 15.7401 1.04037 15.6111 0.888C15.4822 0.735627 15.3073 0.650024 15.125 0.650024H0.6875C0.505164 0.650024 0.330295 0.735627 0.201364 0.888C0.0724328 1.04037 0 1.24704 0 1.46252L0 7.96252C0 8.3935 0.144866 8.80683 0.402728 9.11157C0.660591 9.41632 1.01033 9.58752 1.375 9.58752H4.16006C4.14175 9.72203 4.13004 9.85767 4.125 9.99377C4.125 10.9635 4.45095 11.8935 5.03114 12.5791C5.61133 13.2648 6.39824 13.65 7.21875 13.65C8.03926 13.65 8.82617 13.2648 9.40636 12.5791C9.98655 11.8935 10.3125 10.9635 10.3125 9.99377C10.3075 9.85767 10.2958 9.72203 10.2774 9.58752H18.5625V12.8375C18.5625 13.053 18.6349 13.2597 18.7639 13.412C18.8928 13.5644 19.0677 13.65 19.25 13.65C19.4323 13.65 19.6072 13.5644 19.7361 13.412C19.8651 13.2597 19.9375 13.053 19.9375 12.8375V9.58752H21.3125C21.4948 9.58752 21.6697 9.50192 21.7986 9.34955C21.9276 9.19718 22 8.99051 22 8.77502C22 8.55954 21.9276 8.35287 21.7986 8.2005C21.6697 8.04813 21.4948 7.96252 21.3125 7.96252ZM7.21875 12.025C6.87881 12.025 6.54651 11.9059 6.26386 11.6827C5.98122 11.4595 5.76092 11.1423 5.63083 10.7711C5.50074 10.3999 5.46671 9.99152 5.53302 9.5975C5.59934 9.20347 5.76304 8.84154 6.00341 8.55746C6.24378 8.27339 6.55003 8.07993 6.88344 8.00155C7.21684 7.92318 7.56243 7.9634 7.87649 8.11714C8.19055 8.27088 8.45898 8.53124 8.64784 8.86527C8.8367 9.19931 8.9375 9.59203 8.9375 9.99377C8.9375 10.5325 8.75642 11.0492 8.43409 11.4301C8.11176 11.811 7.67459 12.025 7.21875 12.025ZM7.21875 6.33752C6.7104 6.33801 6.20998 6.48654 5.76175 6.76996C5.31352 7.05339 4.93129 7.46299 4.64888 7.96252H1.375V2.27502H14.4375V7.96252H9.78863C9.50621 7.46299 9.12398 7.05339 8.67575 6.76996C8.22752 6.48654 7.7271 6.33801 7.21875 6.33752Z" fill="#007DF1"/>
</svg>
