<svg width="37" height="36" viewBox="0 0 37 36" fill="none" xmlns="http://www.w3.org/2000/svg">
<g clip-path="url(#clip0_315_2516)">
<path d="M11.0002 27C9.12859 27 7.33366 26.2889 6.01025 25.023C4.68684 23.7571 3.94336 22.0403 3.94336 20.25C3.94336 18.4598 4.68684 16.7429 6.01025 15.4771C7.33366 14.2112 9.12859 13.5 11.0002 13.5C11.4422 11.5308 12.7353 9.80027 14.5951 8.68912C15.5159 8.13893 16.5481 7.75737 17.6328 7.56622C18.7175 7.37507 19.8334 7.37807 20.9168 7.57505C22.0002 7.77203 23.0299 8.15914 23.9471 8.71427C24.8643 9.2694 25.651 9.98168 26.2623 10.8104C26.8736 11.6392 27.2976 12.5682 27.51 13.5444C27.7224 14.5207 27.719 15.525 27.5002 16.5H29.0002C30.3926 16.5 31.7279 17.0532 32.7125 18.0377C33.6971 19.0223 34.2502 20.3577 34.2502 21.75C34.2502 23.1424 33.6971 24.4778 32.7125 25.4624C31.7279 26.4469 30.3926 27 29.0002 27H27.5002" stroke="#007DF1" stroke-width="2" stroke-linecap="round" stroke-linejoin="round"/>
<path d="M14 22.5L18.5 18L23 22.5" stroke="#007DF1" stroke-width="2" stroke-linecap="round" stroke-linejoin="round"/>
<path d="M18.5 18V31.5" stroke="#007DF1" stroke-width="2" stroke-linecap="round" stroke-linejoin="round"/>
</g>
<defs>
<clipPath id="clip0_315_2516">
<rect width="36" height="36" fill="white" transform="translate(0.5)"/>
</clipPath>
</defs>
</svg>
