<svg width="17" height="18" viewBox="0 0 17 18" fill="none" xmlns="http://www.w3.org/2000/svg">
<path d="M14.5104 2.63963C12.905 1.03416 10.7704 0.150024 8.5 0.150024C6.22957 0.150024 4.09504 1.03416 2.48957 2.63963C0.884133 4.24507 0 6.37959 0 8.65002C0 10.9205 0.884133 13.055 2.48957 14.6604C4.09504 16.2659 6.22957 17.15 8.5 17.15C10.7704 17.15 12.905 16.2659 14.5104 14.6604C16.1159 13.055 17 10.9205 17 8.65002C17 6.37959 16.1159 4.24507 14.5104 2.63963ZM8.5 2.05133C11.8463 2.05133 14.6185 4.55515 15.0423 7.78767L10.952 7.3893C10.4934 6.50095 9.56678 5.89177 8.5 5.89177C7.43322 5.89177 6.50662 6.50095 6.04798 7.3893L1.95766 7.78767C2.38146 4.55515 5.15372 2.05133 8.5 2.05133ZM1.9553 9.49255L5.99715 9.80745C6.25248 10.357 6.68342 10.8091 7.2177 11.0909L7.48259 15.1702C4.59906 14.722 2.32751 12.4001 1.9553 9.49255ZM8.5 9.50696C8.02745 9.50696 7.64306 9.12254 7.64306 8.65002C7.64306 8.17751 8.02752 7.79308 8.5 7.79308C8.97248 7.79308 9.35694 8.17754 9.35694 8.65002C9.35694 9.12251 8.97255 9.50696 8.5 9.50696ZM9.51748 15.1702L9.78237 11.0909C10.3166 10.8091 10.7476 10.357 11.0029 9.80745L15.0448 9.49255C14.6725 12.4001 12.4009 14.722 9.51748 15.1702Z" fill="#007DF1"/>
</svg>
